<?xml version="1.0" encoding="UTF-8" standalone="no"?>
<svg
   version="1.1"
   width="409.89999"
   height="467.51208"
   id="svg28"
   sodipodi:docname="logo.svg"
   inkscape:version="1.4.3 (0d15f75, 2025-12-25)"
   xmlns:inkscape="http://www.inkscape.org/namespaces/inkscape"
   xmlns:sodipodi="http://sodipodi.sourceforge.net/DTD/sodipodi-0.dtd"
   xmlns="http://www.w3.org/2000/svg"
   xmlns:svg="http://www.w3.org/2000/svg">
  <sodipodi:namedview
     id="namedview1"
     pagecolor="#505050"
     bordercolor="#ffffff"
     borderopacity="1"
     inkscape:showpageshadow="0"
     inkscape:pageopacity="0"
     inkscape:pagecheckerboard="1"
     inkscape:deskcolor="#505050"
     inkscape:zoom="0.89690584"
     inkscape:cx="299.36253"
     inkscape:cy="216.85665"
     inkscape:window-width="1440"
     inkscape:window-height="837"
     inkscape:window-x="-8"
     inkscape:window-y="-8"
     inkscape:window-maximized="1"
     inkscape:current-layer="svg28" />
  <defs
     id="defs28" />
  <circle
     style="fill:#1a1a1a;stroke-width:1.09979"
     id="path15"
     cx="220.20149"
     cy="220.20148"
     r="294.90274"
     inkscape:export-filename="path15.svg"
     inkscape:export-xdpi="96"
     inkscape:export-ydpi="96" />
  <path
     d="m 296.31797,12.195634 c 21.84517,6.764317 43.97171,11.323977 66.58204,5.316407 -2.32767,5.2405 -4.62062,9.15468 -9,13 -0.68063,0.70125 -1.36125,1.4025 -2.0625,2.125 -11.72809,7.48601 -28.99758,6.65726 -42.30469,4.89844 -9.59467,-1.15518 -19.10101,-1.42206 -28.75781,-1.39844 -0.84607,5.4e-4 -1.69214,10e-4 -2.56385,0.002 -20.99234,0.0617 -40.59169,2.99408 -60.31115,10.37335 -1.05091,0.39228 -1.05091,0.39228 -2.12305,0.79248 -8.02969,3.07805 -14.76834,6.73126 -21.68945,11.83252 -3.49715,2.56063 -6.07701,4.38526 -10.57032,4.34375 -2.74154,-0.75726 -5.11497,-1.6266 -7.61718,-2.96875 4.63239,-11.04053 17.08607,-18.24541 27,-24 0.58765,-0.35191 1.1753,-0.70383 1.78076,-1.06641 14.91393,-8.88036 31.14882,-13.33128 48.21924,-15.93359 0.81339,-0.13148 1.62679,-0.26297 2.46484,-0.39844 7.12035,-0.9812 14.365,-0.68658 21.53516,-0.60156 0,-0.66 0,-1.32 0,-2 -31.32414,-3.312643 -60.95574,-0.13317 -87,19 -4.21525,3.44322 -8.12122,7.18622 -12,11 -0.8611,0.84562 -1.72219,1.69125 -2.60938,2.5625 -4.30829,4.27102 -4.30829,4.27102 -8.39062,8.75391 -0.99,0.83337 -0.99,0.83337 -2,1.68359 -1.76563,-0.27734 -1.76563,-0.27734 -4,-1 -2.60387,0.0859 -5.15752,0.22432 -7.75,0.4375 -1.04608,0.0783 -1.04608,0.0783 -2.11329,0.1582 -1.71268,0.12904 -3.42477,0.2659 -5.13671,0.4043 -0.33,-0.66 -0.66,-1.32 -1,-2 10.21062,-24.4167 32.30531,-40.925953 55.76171,-51.2109381 31.97183,-12.712266 64.41415,-3.825105 95.65625,5.8945311 z"
     fill="#000000"
     id="path1"
     style="fill:#ffcc00" />
  <path
     d="m 181.90001,8.5120409 c -0.57106,0.317109 -1.14211,0.634218 -1.73047,0.960937 -19.41695,11.1747731 -34.26309,25.8712631 -44.26953,46.0390631 -0.21528,0.87527 -0.43055,1.75055 -0.65235,2.65234 -1.8545,3.2306 -3.78494,3.54081 -7.27344,4.51563 -1.15048,0.2881 -1.15048,0.2881 -2.32421,0.58203 -0.75153,0.20754 -1.50305,0.41508 -2.27735,0.62891 -4.12948,1.11705 -8.23541,2.00035 -12.47265,2.62109 1.53924,-16.45399 8.80138,-28.32655 20.625,-39.6875 9.18821,-7.54553 38.58001,-24.2099951 50.375,-18.3125001 z"
     fill="#000000"
     id="path2"
     style="fill:#ffcc00" />
  <path
     d="m 310.90001,46.512041 c 5.04116,0.85715 10.08299,1.7103 15.125,2.5625 1.28334,0.21769 2.56668,0.43538 3.88891,0.65967 24.54632,4.10494 53.77909,8.3293 76.98609,-3.22217 0.99,-0.33 1.98,-0.66 3,-1 -2.33165,11.41536 -9.50054,20.36516 -19,27 -13.00619,6.65033 -30.44648,5.18196 -44,1 -5.52226,-1.95018 -10.98268,-4.06406 -16.45167,-6.15796 -36.68235,-13.83881 -74.93868,-16.90916 -113.54833,-10.84204 -2.33232,0.34105 -4.66593,0.67112 -7,1 7.58502,-6.06436 17.22138,-8.02249 26.5,-10.1875 1.06347,-0.25975 2.12695,-0.51949 3.22265,-0.78711 23.15588,-5.49774 47.99408,-4.06841 71.27735,-0.0254 z"
     fill="#000000"
     id="path3"
     style="fill:#ffcc00" />
  <path
     d="m 263.03917,60.386551 c 21.83375,-1.09196 43.21162,3.4425 63.86084,10.12549 0.89541,0.28923 1.79083,0.57847 2.71337,0.87646 15.10865,4.9868 28.20425,11.58146 40.28663,22.12354 0.81984,0.71027 1.63968,1.42055 2.48437,2.15234 2.54182,2.2458 5.03554,4.533939 7.51563,6.847659 1.2549,1.15629 1.2549,1.15629 2.53515,2.33594 6.57922,6.28432 11.57274,13.03078 16.46485,20.66406 0.59941,0.91137 1.19882,1.82273 1.8164,2.76172 0.39059,0.73863 0.78117,1.47726 1.1836,2.23828 -0.33,0.66 -0.66,1.32 -1,2 -1.67278,-1.78629 -3.33825,-3.57851 -5,-5.375 -0.71543,-0.76184 -0.71543,-0.76184 -1.44532,-1.53906 -3.55468,-3.85938 -3.55468,-3.85938 -3.55468,-6.08594 -0.66,0 -1.32,0 -2,0 -1.71177,-1.62032 -3.37203,-3.29552 -5,-5 -12.57018,-12.92868 -28.83142,-21.571779 -45.07862,-29.107419 -1.26376,-0.58708 -2.52277,-1.18449 -3.77637,-1.79297 -33.19179,-15.99899 -74.91179,-19.06262 -111.14501,-15.09961 -0.33,-0.66 -0.66,-1.32 -1,-2 13.27301,-3.91725 26.35618,-5.31695 40.13916,-6.12549 z"
     fill="#000000"
     id="path4"
     style="fill:#ffcc00" />
  <path
     d="m 175.90001,70.512041 c 0,4.6759 -0.88003,5.69649 -4,9 -0.66,0 -1.32,0 -2,0 -0.30938,0.61875 -0.61875,1.2375 -0.9375,1.875 -0.6875,1.375 -1.375,2.75 -2.0625,4.125 1.01707,-0.67096 1.01707,-0.67096 2.05468,-1.35547 14.27248,-9.27118 24.89969,-13.18548 41.94532,-11.64453 3.61659,0.93161 6.76659,2.13809 10,4 0,0.66 0,1.32 0,2 0.99,0.33 1.98,0.66 3,1 4.37851,5.78266 5.51946,13.01866 4.78125,20.09766 -2.14631,10.380659 -8.48946,18.266989 -17.05079,24.148429 -3.18033,2.04934 -6.34762,4.05066 -9.73046,5.75391 -0.66,-0.33 -1.32,-0.66 -2,-1 0.51949,-0.52207 1.03898,-1.04414 1.57421,-1.58203 8.23265,-8.68917 11.97738,-16.41686 11.99219,-28.472659 -0.71775,-3.73228 -1.75614,-5.38926 -4.5664,-7.94531 -8.38124,-1.91114 -15.52916,-0.0163 -22.69532,4.39453 -2.13936,1.4903 -4.23625,3.0184 -6.30468,4.60547 0.30937,0.598119 0.61875,1.196249 0.9375,1.812499 2.5945,5.34162 2.83185,10.35509 2.0625,16.1875 -2.70124,7.44008 -6.96817,13.93324 -12,20 0.4589,0.65484 0.91781,1.30969 1.39062,1.98437 10.40288,15.47319 11.27188,30.58746 9.17188,48.8125 -3.46602,16.37693 -15.60015,28.55623 -28.5625,38.20313 -0.69868,0.5298 -1.39735,1.05961 -2.11719,1.60547 -4.5831,3.39453 -4.5831,3.39453 -6.88281,3.39453 1.16228,-2.74723 2.40296,-4.44429 4.4375,-6.6875 7.13206,-8.43262 8.27069,-22.68958 7.5625,-33.3125 -0.89578,-7.62854 -4.00383,-14.48207 -8,-21 -0.99,-0.66 -1.98,-1.32 -3,-2 0.30937,0.99 0.61875,1.98 0.9375,3 2.32635,8.28247 2.17969,16.45759 2.0625,25 -0.66,0.33 -1.32,0.66 -2,1 -0.64691,-1.60373 -1.29249,-3.208 -1.9375,-4.8125 -0.35965,-0.89332 -0.7193,-1.78664 -1.08985,-2.70703 -0.70879,-1.80756 -1.35868,-3.63854 -1.97265,-5.48047 -1.31404,-0.70395 -2.65203,-1.36346 -4,-2 -0.68063,-0.61875 -1.36125,-1.2375 -2.0625,-1.875 -10.47899,-7.58054 -22.58723,-6.75365 -34.9375,-6.8125 -2.81984,-0.0291 -5.63952,-0.0636 -8.45923,-0.10249 -1.74391,-0.0224 -3.48791,-0.0383 -5.23194,-0.0469 -3.34795,-0.03 -6.11083,-0.0972 -9.30883,-1.16316 0,0.66 0,1.32 0,2 1.11375,0.1173 2.2275,0.23461 3.375,0.35547 4.9688,0.62328 9.76691,1.76217 14.625,2.95703 0.90903,0.22003 1.81806,0.44005 2.75463,0.66675 8.09219,1.96477 16.1728,3.97692 24.24537,6.02075 0,0.33 0,0.66 0,1 -12.84169,0.21757 -25.32263,0.24307 -38,-2 0.86756,2.28432 0.86756,2.28432 3.64062,3.07812 1.19109,0.38672 2.38219,0.77344 3.60938,1.17188 0.96885,0.31554 0.96885,0.31554 1.95727,0.63745 9.19035,2.94627 18.49799,5.51926 27.79273,8.11255 0,0.33 0,0.66 0,1 -15.66689,-0.82369 -30.82397,-1.86473 -46,-6 0,0.66 0,1.32 0,2 0.73178,0.1343 1.46356,0.26861 2.21752,0.40698 2.53138,0.5395 4.8618,1.22902 7.30201,2.0813 0.85046,0.29238 1.70091,0.58475 2.57714,0.88599 0.89623,0.30961 1.79245,0.61923 2.71583,0.93823 8.03756,2.74582 16.03827,5.02387 24.32812,6.86328 0.94359,0.27199 1.88719,0.54399 2.85938,0.82422 0.33,0.66 0.66,1.32 1,2 -6.80942,0.0771 -13.61872,0.12902 -20.42847,0.16479 -2.30896,0.0149 -4.6179,0.0353 -6.92676,0.0615 -21.29237,0.2355 -44.560272,0.48883 -60.87915,-15.4021 -8.765625,-9.51742 -8.765625,-9.51742 -8.765625,-14.82422 -0.66,0 -1.32,0 -2,0 -0.33,7.26 -0.66,14.52 -1,22 -14.4101991,-14.4102 -17.58719909,-27.26811 -18.00000009,-47 1.48098599,1.94298 2.92238499,3.88055 4.25390599,5.92969 3.918466,5.82506 8.5749901,8.8506 14.7460941,12.07031 0.12375,-0.53367 0.2475,-1.06734 0.375,-1.61719 3.020466,-10.91143 10.214758,-17.62188 19.402344,-23.78906 2.321665,-1.40321 2.321665,-1.40321 3.222656,-3.59375 -13.893378,-1.75627 -27.181317,-0.73703 -41.00000009,1 0.65999999,-1.32 1.31999999,-2.64 1.99999999,-4 0.66,0 1.32,0 2,0 0.33,-0.99 0.66,-1.98 1,-3 C 18.421946,123.96465 34.10918,115.87134 50.17564,110.55053 c 5.522474,-1.97942 7.85418,-4.13935 11.10352,-8.958 6.08873,-7.815659 16.78298,-12.125129 25.43335,-16.580569 0.94868,-0.49107 0.94868,-0.49107 1.91653,-0.99207 11.09311,-5.70988 22.22809,-10.21305 34.27097,-13.50793 1.16144,-0.35449 2.32289,-0.70898 3.51953,-1.07422 15.56125,-4.15845 34.11047,-3.54503 49.48047,1.07422 z m -83,33.999999 c -4.23382,4.47049 -4.23382,4.47049 -6,10 -0.57235,0.27844 -1.14469,0.55687 -1.73438,0.84375 -2.2318,1.13899 -4.37433,2.35561 -6.51562,3.65625 -1.05961,0.63422 -1.05961,0.63422 -2.14063,1.28125 -0.53109,0.40219 -1.06219,0.80437 -1.60937,1.21875 0,0.66 0,1.32 0,2 7.28558,-1.44445 14.16775,-3.31172 21.125,-5.875 9.12882,-3.35981 18.44091,-5.7846 27.875,-8.125 -0.495,-1.485 -0.495,-1.485 -1,-3 -2.70563,-1.06132 -5.27539,-1.91161 -8.0625,-2.6875 -0.73928,-0.22494 -1.47856,-0.44988 -2.24024,-0.68164 -6.74129,-1.94041 -13.91604,-3.499259 -19.69726,1.36914 z"
     fill="#000000"
     id="path5"
     style="fill:#ffcc00" />
  <path
     d="m 359.90001,107.51204 c 25.52301,22.38684 43.99878,53.80179 47,88 1.33217,22.31714 -1.82009,43.9434 -12,64 -0.33,0 -0.66,0 -1,0 0.14262,-1.5628 0.28925,-3.12523 0.4375,-4.6875 0.12181,-1.30518 0.12181,-1.30518 0.24609,-2.63672 0.31641,-2.67578 0.31641,-2.67578 0.81909,-5.03271 5.14593,-27.34896 -4.52221,-55.29984 -19.34546,-77.95166 -3.07486,-4.49423 -6.55893,-8.61292 -10.15722,-12.69141 -0.75411,-0.86367 -1.50821,-1.72734 -2.28516,-2.61719 -9.41555,-10.62681 -19.05432,-20.62847 -31.74219,-27.29687 -3.75196,-2.06544 -7.17024,-4.84104 -9.97265,-8.08594 0,-0.66 0,-1.32 0,-2 -0.55688,-0.0619 -1.11375,-0.12375 -1.6875,-0.1875 -2.60469,-0.91516 -3.76965,-2.21999 -5.61329,-4.21484 -3.14999,-2.96172 -6.8142,-5.2863 -10.37109,-7.73047 -2.32812,-1.86719 -2.32812,-1.86719 -3.32812,-4.867189 -18.03598,-10.94416 -39.49075,-12.38983 -60,-12 1,-2 1,-2 3.08203,-2.76196 0.90105,-0.23453 1.80211,-0.46906 2.73047,-0.7107 0.99386,-0.25974 1.98773,-0.51949 3.01171,-0.78711 1.57202,-0.39735 1.57202,-0.39735 3.17579,-0.80273 1.01707,-0.26877 2.03414,-0.53754 3.08203,-0.81445 36.0929,-9.28964 75.55497,2.33618 103.91797,25.876949 z"
     fill="#000000"
     id="path6"
     style="fill:#ffcc00" />
  <path
     d="m 322.90001,132.51204 c 0.97066,0.54269 1.94132,1.08539 2.9414,1.64453 10.34442,6.18858 19.82283,14.57148 28.0586,23.35547 0,0.66 0,1.32 0,2 1.485,0.495 1.485,0.495 3,1 2.93862,3.46247 5.43225,7.25735 8,11 0.61617,0.87398 1.23234,1.74797 1.86718,2.64844 9.51334,14.07973 14.43802,30.43758 15.13282,47.35156 0.0412,0.99387 0.0825,1.98773 0.125,3.01172 0.61319,30.5446 -8.3088,58.56224 -29.625,80.80078 -10.93969,10.40734 -10.93969,10.40734 -16.5,13.1875 1.45928,-3.12815 3.23544,-6.00379 5.07177,-8.92261 14.86288,-23.84036 20.4237,-53.52001 15.80323,-81.33911 -1.71678,-7.33462 -3.92463,-14.52164 -6.24244,-21.68628 -0.61775,-2.00395 -1.14345,-4.01323 -1.63256,-6.052 -0.66,0 -1.32,0 -2,0 -1.62641,-2.91588 -3.25088,-5.83284 -4.875,-8.75 -0.4602,-0.825 -0.9204,-1.65 -1.39454,-2.5 -0.44472,-0.79922 -0.88945,-1.59844 -1.34765,-2.42188 -0.40847,-0.73315 -0.81695,-1.4663 -1.2378,-2.22168 -3.06952,-5.64687 -3.06952,-5.64687 -3.54736,-8.55566 -2.90386,-12.39361 -22.7451,-28.47416 -33.08594,-35.05469 -0.82886,-0.49371 -1.65773,-0.98742 -2.51171,-1.49609 -0.98356,-0.62777 -1.96711,-1.25555 -2.98047,-1.90234 -15.98048,-9.76064 -33.75691,-15.84898 -52.39453,-17.66016 -1.19625,-0.14438 -2.3925,-0.28875 -3.625,-0.4375 -0.33,-0.66 -0.66,-1.32 -1,-2 28.93542,-5.63612 58.49329,0.55082 84,15 z"
     fill="#000000"
     id="path7"
     style="fill:#ffcc00" />
  <path
     d="m 258.90001,129.51204 c 14.67482,1.72852 27.45767,9.19267 39,18 0.84046,0.61875 1.68093,1.2375 2.54687,1.875 2.91825,2.52791 5.20801,5.36662 7.51563,8.4375 0.42087,0.54334 0.84175,1.08668 1.27539,1.64648 5.10253,6.70054 8.24255,12.98018 10.34961,21.10352 0.21205,0.77666 0.4241,1.55332 0.64257,2.35352 5.20351,19.38593 3.31213,38.42788 -5.33007,56.58398 -0.39575,0.86754 -0.79149,1.73508 -1.19922,2.62891 -4.19958,8.46221 -10.29032,15.46667 -16.35645,22.63574 -1.27986,1.53773 -2.5034,3.12196 -3.71777,4.71191 -0.56977,0.66774 -1.13953,1.33547 -1.72656,2.02344 -0.66,0 -1.32,0 -2,0 -0.22043,0.5543 -0.44086,1.10859 -0.66797,1.67969 -5.4603,9.51148 -17.65224,16.80765 -26.33203,23.32031 -1.50308,1.16271 -3.0034,2.32898 -4.5,3.5 -1.49986,1.16686 -2.99987,2.3335 -4.5,3.5 -1.52948,1.19109 -1.52948,1.19109 -3.08985,2.40625 -4.87035,3.77824 -9.73412,7.52048 -14.84765,10.96875 -28.25461,19.53971 -48.93184,46.267 -56.59791,79.97949 -4.51592,25.71445 2.16236,49.42614 16.53541,70.64551 -4.25756,0 -6.07328,-2.46079 -9,-5.25 -0.57597,-0.54358 -1.15194,-1.08716 -1.74537,-1.64722 -20.19336,-19.26525 -34.73869,-40.71077 -36.45776,-69.50512 -0.42985,-32.41757 15.09782,-59.81324 37.20313,-82.59766 0.89074,-0.93715 1.78148,-1.8743 2.69921,-2.83984 2.30079,-2.16016 2.30079,-2.16016 4.30079,-2.16016 0,-0.66 0,-1.32 0,-2 2.35645,-1.95805 4.7295,-3.80112 7.1875,-5.625 1.56523,-1.17822 3.13032,-2.35661 4.69531,-3.53516 0.83305,-0.62406 1.66611,-1.24813 2.52441,-1.89111 4.40507,-3.31085 8.77724,-6.66476 13.15528,-10.01123 4.97169,-3.79622 9.94647,-7.58602 14.97656,-11.30469 6.70344,-4.95703 13.19927,-9.93442 19.30469,-15.63281 1.99699,-1.85229 4.05638,-3.57928 6.15625,-5.3125 13.29901,-11.72026 26.74027,-30.95214 28.19287,-49.09668 0.70763,-22.06967 -2.87577,-40.77937 -18.19287,-57.59082 0,-0.66 0,-1.32 0,-2 -0.66,0 -1.32,0 -2,0 0,-0.66 0,-1.32 0,-2 -0.66,0 -1.32,0 -2,0 0,-0.66 0,-1.32 0,-2 -0.5775,-0.2475 -1.155,-0.495 -1.75,-0.75 -2.5503,-1.41683 -4.26786,-3.12628 -6.25,-5.25 z"
     fill="#000000"
     id="path8"
     style="fill:#ffcc00" />
  <path
     d="m 225.90001,135.51204 c 17.0857,3.90335 34.61593,12.10712 44.9414,26.75391 8.86112,14.18888 9.69976,28.35444 6.15235,44.44921 -4.01286,13.93033 -13.18623,27.2528 -24.09375,36.79688 -0.66,0 -1.32,0 -2,0 0,0.66 0,1.32 0,2 -0.66,0 -1.32,0 -2,0 0,0.66 0,1.32 0,2 -1.73047,1.41016 -1.73047,1.41016 -4.1875,3.0625 -0.90235,0.61359 -1.80469,1.22719 -2.73438,1.85937 -1.01578,0.68579 -2.03156,1.37157 -3.07812,2.07813 -2.31651,1.59841 -4.62652,3.20612 -6.9375,4.8125 -3.00839,2.08328 -6.01779,4.15769 -9.0625,6.1875 -0.99,-0.33 -1.98,-0.66 -3,-1 0.83402,-0.66645 1.66804,-1.33289 2.52734,-2.01953 19.8743,-16.16009 34.88774,-39.25201 37.71191,-65.17676 1.17793,-15.15507 -2.1894,-29.38542 -11.23925,-41.80371 -0.48856,-0.68191 -0.97711,-1.36383 -1.48047,-2.06641 -5.22893,-6.59748 -13.47506,-13.2521 -21.51953,-15.93359 0,-0.66 0,-1.32 0,-2 z"
     fill="#000000"
     id="path9"
     style="fill:#ffcc00" />
  <path
     d="m 223.90001,152.51204 c 10.50948,4.79422 18.85891,15.43148 23.23046,25.96484 4.4964,15.05133 -0.0216,29.8395 -7.03198,43.37842 -3.22243,5.95646 -6.94002,11.38791 -11.19848,16.65674 -0.45907,0.56977 -0.91814,1.13953 -1.39112,1.72656 -1.48311,1.83016 -2.97954,3.6482 -4.48388,5.46094 -0.47672,0.57774 -0.95343,1.15548 -1.44458,1.75073 -1.18132,1.39379 -2.42598,2.73341 -3.68042,4.06177 -0.66,0 -1.32,0 -2,0 -0.25524,0.58137 -0.51047,1.16273 -0.77344,1.76172 -1.35159,2.46643 -2.84349,4.08671 -4.85156,6.05078 -0.94747,0.93779 -0.94747,0.93779 -1.91407,1.89453 -2.04796,1.90818 -4.12579,3.75448 -6.23828,5.58984 -4.1514,3.61317 -8.16296,7.35856 -12.16015,11.14063 -9.26476,8.71275 -9.26476,8.71275 -13.4375,12.5 -0.66774,0.60715 -1.33547,1.2143 -2.02344,1.83984 -1.60156,1.22266 -1.60156,1.22266 -3.60156,1.22266 0,0.66 0,1.32 0,2 -0.66,0 -1.32,0 -2,0 -0.66,1.32 -1.32,2.64 -2,4 -0.66,0 -1.32,0 -2,0 -0.23719,0.56074 -0.47438,1.12148 -0.71875,1.69922 -1.57212,2.82309 -3.52987,4.79421 -5.78125,7.11328 -21.05328,22.59667 -29.37787,50.64682 -28.59766,81.04883 0.297,6.50436 1.39777,12.6451 3.78516,18.70117 1.3125,3.4375 1.3125,3.4375 0.3125,6.4375 -1.93639,-2.88195 -3.86564,-5.76829 -5.78125,-8.66406 -1.33201,-2.01294 -2.68308,-4.00292 -4.0625,-5.98438 -13.86841,-20.48742 -19.28032,-46.06958 -15.03125,-70.41406 4.74102,-23.73728 17.66592,-44.38841 37.875,-57.9375 4.45767,-2.69593 9.09792,-5.04835 13.74676,-7.39383 11.07732,-5.59659 21.69441,-11.38401 31.68292,-18.79758 2.57032,-1.80859 2.57032,-1.80859 4.57032,-1.80859 0,-0.66 0,-1.32 0,-2 1.43359,-1.41016 1.43359,-1.41016 3.4375,-3.0625 8.2931,-6.62562 8.2931,-6.62562 14.5625,-14.9375 0.66,0 1.32,0 2,0 0.37125,-1.08281 0.37125,-1.08281 0.75,-2.1875 1.25,-2.8125 1.25,-2.8125 3.0625,-5 10.23799,-13.16313 12.68892,-29.37573 10.8789,-45.57422 -1.02501,-5.19763 -3.15889,-9.61842 -5.6914,-14.23828 -0.67133,-1.33099 -1.33924,-2.66373 -2,-4 z"
     fill="#000000"
     id="path10"
     style="fill:#ffcc00" />
  <path
     d="m 208.90001,165.51204 c 2,1 2,1 3.07031,4.14844 4.23815,16.16282 5.55718,32.91623 -2.28516,48.22265 -14.1028,22.93239 -39.2343,36.54773 -63.78515,45.62891 1.10049,-3.30147 1.48524,-3.59916 4.2539,-5.39063 0.682,-0.45471 1.36399,-0.90943 2.06665,-1.37793 0.73984,-0.48887 1.47968,-0.97775 2.24195,-1.48144 8.73511,-5.95639 16.29323,-12.75822 23.81054,-20.16699 1.30742,-1.27211 2.65639,-2.50143 4.01758,-3.71582 13.99183,-12.68365 25.09802,-34.17922 26.23438,-52.99219 0.0748,-1.15758 0.14953,-2.31516 0.22656,-3.50781 0.1379,-3.12817 0.17698,-6.23655 0.14844,-9.36719 z"
     fill="#000000"
     id="path11"
     style="fill:#ffcc00" />
  <path
     d="m 26.900005,199.51204 c 0.9075,0.80437 1.815,1.60875 2.75,2.4375 14.636611,12.42787 27.672815,17.8677 46.250005,21.5625 -1.85107,6.14485 -4.52632,9.11529 -9.625,13 -3.72238,4.70195 -4.32828,10.18771 -5.375,16 -5.211535,-1.562 -8.029093,-3.40727 -12.000005,-7 0.33,2.97 0.66,5.94 1,9 -11.581789,-7.3427 -20.630474,-16.36595 -24.537109,-29.85449 -0.829048,-3.84266 -0.647437,-7.72919 -0.650391,-11.64551 -0.01225,-0.85465 -0.02449,-1.7093 -0.03711,-2.58984 -0.0019,-0.82629 -0.0039,-1.65258 -0.0059,-2.50391 -0.0062,-1.12439 -0.0062,-1.12439 -0.01245,-2.27148 0.274553,-2.41276 1.045417,-4.03936 2.24292,-6.13477 z"
     fill="#000000"
     id="path12"
     style="fill:#ffcc00" />
  <path
     d="m 328.90001,203.51204 c 2,1 2,1 3.21875,4.55078 8.42636,30.22853 8.13042,61.64664 -6.79297,89.96875 -5.12814,8.92156 -11.17774,16.83182 -17.91016,24.57031 -1.58284,1.83109 -3.13061,3.6937 -4.625,5.59766 -1.69415,2.07219 -3.33214,3.68216 -5.39062,5.375 -4.42048,3.75324 -8.44596,7.84997 -12.4629,12.02563 -1.30964,1.34017 -2.66969,2.6307 -4.0371,3.91187 -0.66,0 -1.32,0 -2,0 0,0.66 0,1.32 0,2 -1.53907,1.55078 -1.53907,1.55078 -3.625,3.3125 -0.73348,0.62648 -1.46696,1.25297 -2.22266,1.89844 -1.7207,1.43027 -3.46416,2.83315 -5.21484,4.22656 -4.35502,3.79906 -8.18939,8.08061 -11.51954,12.80859 -0.46793,0.57879 -0.93586,1.15758 -1.41796,1.75391 -0.66,0 -1.32,0 -2,0 -0.2604,0.71801 -0.52079,1.43602 -0.78907,2.17578 -1.26205,2.94342 -2.79318,5.36173 -4.58593,8.01172 -5.05988,7.80063 -8.77486,15.83807 -8.72266,25.23437 0.005,1.53721 0.005,1.53721 0.01,3.10547 0.008,1.06348 0.0168,2.12696 0.0254,3.22266 0.005,1.07894 0.009,2.15789 0.0137,3.26953 0.0118,2.66021 0.0282,5.32031 0.0488,7.98047 -3.53787,-3.239 -6.0785,-6.90978 -8.625,-10.9375 -0.59168,-0.91169 -0.59168,-0.91169 -1.19532,-1.8418 -8.30539,-13.00523 -9.17528,-29.94023 -6.52734,-44.9082 0.9215,-3.22723 2.02528,-6.22827 3.34766,-9.3125 0.48597,-1.13695 0.97195,-2.27391 1.47265,-3.44531 4.09227,-8.80371 9.37415,-16.10152 15.52735,-23.55469 -0.66,-0.33 -1.32,-0.66 -2,-1 1.59576,-1.50894 3.20189,-3.00691 4.8125,-4.5 0.89332,-0.83531 1.78664,-1.67063 2.70703,-2.53125 2.48047,-1.96875 2.48047,-1.96875 5.48047,-1.96875 0.495,-1.485 0.495,-1.485 1,-3 1.80029,-1.36574 3.66811,-2.64307 5.5625,-3.875 29.28564,-19.7472 60.96202,-48.02338 68.03125,-84.16016 0.59456,-5.80277 0.51008,-11.57384 0.46875,-17.40234 -0.005,-1.2085 -0.009,-2.41699 -0.0137,-3.66211 -0.0117,-2.96685 -0.0281,-5.93359 -0.0488,-8.90039 z"
     fill="#000000"
     id="path13"
     style="fill:#ffcc00" />
  <path
     d="m 113.90001,291.51204 c 0,0.99 0,1.98 0,3 -0.99,0.33 -1.98,0.66 -3,1 -1.04159,1.81096 -1.04159,1.81096 -2,4 -1.09679,1.62999 -2.20178,3.25447 -3.3125,4.875 -8.28534,12.94583 -11.08616,27.46137 -11,42.625 0.005,1.04027 0.01,2.08055 0.0149,3.15234 0.29192,19.56943 4.66258,37.77415 13.29761,55.34766 0.49693,1.15436 0.49693,1.15436 1.0039,2.33203 3.05621,6.80036 7.41703,12.4659 11.98267,18.31128 0.51619,0.66427 1.03238,1.32854 1.56421,2.01294 0.47091,0.59619 0.94182,1.19238 1.427,1.80664 1.02222,1.53711 1.02222,1.53711 1.02222,3.53711 0.66,0 1.32,0 2,0 3,3.46154 3,3.46154 3,6 0.66,0 1.32,0 2,0 1.71436,1.95927 3.38405,3.9588 5,6 -4.22469,0 -6.91942,-2.17176 -10.375,-4.375 -0.711,-0.44972 -1.422,-0.89944 -2.15455,-1.36279 -9.9999,-6.41934 -20.27692,-13.62407 -28.47045,-22.26221 0,-0.66 0,-1.32 0,-2 -1.485,-0.495 -1.485,-0.495 -3,-1 0,-0.66 0,-1.32 0,-2 -1.485,-0.495 -1.485,-0.495 -3,-1 -1.65435,-1.81859 -3.14529,-3.6093 -4.625,-5.5625 -0.43514,-0.57355 -0.87028,-1.1471 -1.31861,-1.73804 -13.86156,-18.74207 -18.26683,-36.24363 -15.6228,-59.51587 3.76681,-19.06804 16.47036,-34.98471 32.27734,-45.77734 9.11536,-6.01502 9.11536,-6.01502 13.28907,-7.40625 z"
     fill="#000000"
     id="path14"
     inkscape:export-filename="logo.svg"
     inkscape:export-xdpi="96"
     inkscape:export-ydpi="96"
     style="fill:#ffcc00" />
</svg>
