<?xml version="1.0" encoding="UTF-8" standalone="no"?>
<svg
   version="1.1"
   width="1968.5027"
   height="467.51208"
   id="svg28"
   xmlns="http://www.w3.org/2000/svg"
   xmlns:svg="http://www.w3.org/2000/svg">
  <defs
     id="defs28" />
  <path
     d="m 296.41796,12.195634 c 21.84517,6.764317 43.97171,11.323977 66.58204,5.316407 -2.32767,5.2405 -4.62062,9.15468 -9,13 -0.68063,0.70125 -1.36125,1.4025 -2.0625,2.125 -11.72809,7.48601 -28.99758,6.65726 -42.30469,4.89844 -9.59467,-1.15518 -19.10101,-1.42206 -28.75781,-1.39844 -0.84607,5.4e-4 -1.69214,10e-4 -2.56385,0.002 -20.99234,0.0617 -40.59169,2.99408 -60.31115,10.37335 -1.05091,0.39228 -1.05091,0.39228 -2.12305,0.79248 -8.02969,3.07805 -14.76834,6.73126 -21.68945,11.83252 -3.49715,2.56063 -6.07701,4.38526 -10.57032,4.34375 -2.74154,-0.75726 -5.11497,-1.6266 -7.61718,-2.96875 4.63239,-11.04053 17.08607,-18.24541 27,-24 0.58765,-0.35191 1.1753,-0.70383 1.78076,-1.06641 14.91393,-8.88036 31.14882,-13.33128 48.21924,-15.93359 0.81339,-0.13148 1.62679,-0.26297 2.46484,-0.39844 7.12035,-0.9812 14.365,-0.68658 21.53516,-0.60156 0,-0.66 0,-1.32 0,-2 -31.32414,-3.312643 -60.95574,-0.13317 -87,19 -4.21525,3.44322 -8.12122,7.18622 -12,11 -0.8611,0.84562 -1.72219,1.69125 -2.60938,2.5625 -4.30829,4.27102 -4.30829,4.27102 -8.39062,8.75391 -0.99,0.83337 -0.99,0.83337 -2,1.68359 -1.76563,-0.27734 -1.76563,-0.27734 -4,-1 -2.60387,0.0859 -5.15752,0.22432 -7.75,0.4375 -1.04608,0.0783 -1.04608,0.0783 -2.11329,0.1582 -1.71268,0.12904 -3.42477,0.2659 -5.13671,0.4043 -0.33,-0.66 -0.66,-1.32 -1,-2 10.21062,-24.4167 32.30531,-40.925953 55.76171,-51.2109381 31.97183,-12.712266 64.41415,-3.825105 95.65625,5.8945311 z"
     fill="#000000"
     id="path1" />
  <path
     d="m 182,8.5120409 c -0.57106,0.317109 -1.14211,0.634218 -1.73047,0.960937 C 160.85258,20.647751 146.00644,35.344241 136,55.512041 c -0.21528,0.87527 -0.43055,1.75055 -0.65235,2.65234 -1.8545,3.2306 -3.78494,3.54081 -7.27344,4.51563 -1.15048,0.2881 -1.15048,0.2881 -2.32421,0.58203 -0.75153,0.20754 -1.50305,0.41508 -2.27735,0.62891 -4.12948,1.11705 -8.23541,2.00035 -12.47265,2.62109 1.53924,-16.45399 8.80138,-28.32655 20.625,-39.6875 C 140.81321,19.279011 170.20501,2.6145459 182,8.5120409 Z"
     fill="#000000"
     id="path2" />
  <path
     d="m 311,46.512041 c 5.04116,0.85715 10.08299,1.7103 15.125,2.5625 1.28334,0.21769 2.56668,0.43538 3.88891,0.65967 24.54632,4.10494 53.77909,8.3293 76.98609,-3.22217 0.99,-0.33 1.98,-0.66 3,-1 -2.33165,11.41536 -9.50054,20.36516 -19,27 -13.00619,6.65033 -30.44648,5.18196 -44,1 -5.52226,-1.95018 -10.98268,-4.06406 -16.45167,-6.15796 C 293.86598,53.515271 255.60965,50.444921 217,56.512041 c -2.33232,0.34105 -4.66593,0.67112 -7,1 7.58502,-6.06436 17.22138,-8.02249 26.5,-10.1875 1.06347,-0.25975 2.12695,-0.51949 3.22265,-0.78711 23.15588,-5.49774 47.99408,-4.06841 71.27735,-0.0254 z"
     fill="#000000"
     id="path3" />
  <path
     d="m 263.13916,60.386551 c 21.83375,-1.09196 43.21162,3.4425 63.86084,10.12549 0.89541,0.28923 1.79083,0.57847 2.71337,0.87646 15.10865,4.9868 28.20425,11.58146 40.28663,22.12354 0.81984,0.71027 1.63968,1.42055 2.48437,2.15234 2.54182,2.2458 5.03554,4.533939 7.51563,6.847659 1.2549,1.15629 1.2549,1.15629 2.53515,2.33594 6.57922,6.28432 11.57274,13.03078 16.46485,20.66406 0.59941,0.91137 1.19882,1.82273 1.8164,2.76172 0.39059,0.73863 0.78117,1.47726 1.1836,2.23828 -0.33,0.66 -0.66,1.32 -1,2 -1.67278,-1.78629 -3.33825,-3.57851 -5,-5.375 -0.71543,-0.76184 -0.71543,-0.76184 -1.44532,-1.53906 C 391,121.7386 391,121.7386 391,119.51204 c -0.66,0 -1.32,0 -2,0 -1.71177,-1.62032 -3.37203,-3.29552 -5,-5 -12.57018,-12.92868 -28.83142,-21.571779 -45.07862,-29.107419 -1.26376,-0.58708 -2.52277,-1.18449 -3.77637,-1.79297 C 301.95322,67.612661 260.23322,64.549031 224,68.512041 c -0.33,-0.66 -0.66,-1.32 -1,-2 13.27301,-3.91725 26.35618,-5.31695 40.13916,-6.12549 z"
     fill="#000000"
     id="path4" />
  <path
     d="m 176,70.512041 c 0,4.6759 -0.88003,5.69649 -4,9 -0.66,0 -1.32,0 -2,0 -0.30938,0.61875 -0.61875,1.2375 -0.9375,1.875 -0.6875,1.375 -1.375,2.75 -2.0625,4.125 1.01707,-0.67096 1.01707,-0.67096 2.05468,-1.35547 14.27248,-9.27118 24.89969,-13.18548 41.94532,-11.64453 3.61659,0.93161 6.76659,2.13809 10,4 0,0.66 0,1.32 0,2 0.99,0.33 1.98,0.66 3,1 4.37851,5.78266 5.51946,13.01866 4.78125,20.09766 -2.14631,10.380659 -8.48946,18.266989 -17.05079,24.148429 -3.18033,2.04934 -6.34762,4.05066 -9.73046,5.75391 -0.66,-0.33 -1.32,-0.66 -2,-1 0.51949,-0.52207 1.03898,-1.04414 1.57421,-1.58203 8.23265,-8.68917 11.97738,-16.41686 11.99219,-28.472659 -0.71775,-3.73228 -1.75614,-5.38926 -4.5664,-7.94531 -8.38124,-1.91114 -15.52916,-0.0163 -22.69532,4.39453 -2.13936,1.4903 -4.23625,3.0184 -6.30468,4.60547 0.30937,0.598119 0.61875,1.196249 0.9375,1.812499 2.5945,5.34162 2.83185,10.35509 2.0625,16.1875 -2.70124,7.44008 -6.96817,13.93324 -12,20 0.4589,0.65484 0.91781,1.30969 1.39062,1.98437 10.40288,15.47319 11.27188,30.58746 9.17188,48.8125 -3.46602,16.37693 -15.60015,28.55623 -28.5625,38.20313 -0.69868,0.5298 -1.39735,1.05961 -2.11719,1.60547 -4.5831,3.39453 -4.5831,3.39453 -6.88281,3.39453 1.16228,-2.74723 2.40296,-4.44429 4.4375,-6.6875 7.13206,-8.43262 8.27069,-22.68958 7.5625,-33.3125 -0.89578,-7.62854 -4.00383,-14.48207 -8,-21 -0.99,-0.66 -1.98,-1.32 -3,-2 0.30937,0.99 0.61875,1.98 0.9375,3 2.32635,8.28247 2.17969,16.45759 2.0625,25 -0.66,0.33 -1.32,0.66 -2,1 -0.64691,-1.60373 -1.29249,-3.208 -1.9375,-4.8125 -0.35965,-0.89332 -0.7193,-1.78664 -1.08985,-2.70703 -0.70879,-1.80756 -1.35868,-3.63854 -1.97265,-5.48047 -1.31404,-0.70395 -2.65203,-1.36346 -4,-2 -0.68063,-0.61875 -1.36125,-1.2375 -2.0625,-1.875 -10.47899,-7.58054 -22.58723,-6.75365 -34.9375,-6.8125 -2.819835,-0.0291 -5.639515,-0.0636 -8.459225,-0.10249 -1.74391,-0.0224 -3.48791,-0.0383 -5.23194,-0.0469 -3.34795,-0.03 -6.11083,-0.0972 -9.30883,-1.16316 0,0.66 0,1.32 0,2 1.11375,0.1173 2.2275,0.23461 3.375,0.35547 4.9688,0.62328 9.76691,1.76217 14.625,2.95703 0.90903,0.22003 1.81806,0.44005 2.75463,0.66675 8.092185,1.96477 16.172795,3.97692 24.245365,6.02075 0,0.33 0,0.66 0,1 -12.84169,0.21757 -25.322625,0.24307 -37.999995,-2 0.86756,2.28432 0.86756,2.28432 3.64062,3.07812 1.19109,0.38672 2.38219,0.77344 3.60938,1.17188 0.96885,0.31554 0.96885,0.31554 1.95727,0.63745 9.190345,2.94627 18.497985,5.51926 27.792725,8.11255 0,0.33 0,0.66 0,1 -15.66689,-0.82369 -30.823965,-1.86473 -45.999995,-6 0,0.66 0,1.32 0,2 0.73178,0.1343 1.46356,0.26861 2.21752,0.40698 2.53138,0.5395 4.8618,1.22902 7.30201,2.0813 0.85046,0.29238 1.70091,0.58475 2.57714,0.88599 0.89623,0.30961 1.79245,0.61923 2.71583,0.93823 8.03756,2.74582 16.038265,5.02387 24.328115,6.86328 0.94359,0.27199 1.88719,0.54399 2.85938,0.82422 0.33,0.66 0.66,1.32 1,2 -6.80942,0.0771 -13.61872,0.12902 -20.428465,0.16479 -2.30896,0.0149 -4.6179,0.0353 -6.92676,0.0615 -21.29237,0.2355 -44.560272,0.48883 -60.87915,-15.4021 C 21,182.81876 21,182.81876 21,177.51196 c -0.66,0 -1.32,0 -2,0 -0.33,7.26 -0.66,14.52 -1,22 C 3.5898006,185.10176 0.41280057,172.24385 -4.3212893e-7,152.51196 1.4809856,154.45494 2.9223846,156.39251 4.2539056,158.44165 8.1723716,164.26671 12.828896,167.29225 19,170.51196 c 0.12375,-0.53367 0.2475,-1.06734 0.375,-1.61719 3.020466,-10.91143 10.214758,-17.62188 19.402344,-23.78906 2.321665,-1.40321 2.321665,-1.40321 3.222656,-3.59375 -13.893378,-1.75627 -27.181317,-0.73703 -41.00000043,1 0.66000003,-1.32 1.32000003,-2.64 2.00000003,-4 0.66,0 1.32,0 2,0 0.33,-0.99 0.66,-1.98 1,-3 12.5219414,-11.54731 28.2091754,-19.64062 44.2756354,-24.96143 5.522474,-1.97942 7.85418,-4.13935 11.10352,-8.958 6.08873,-7.815659 16.78298,-12.125129 25.43335,-16.580569 0.94868,-0.49107 0.94868,-0.49107 1.91653,-0.99207 11.09311,-5.70988 22.228085,-10.21305 34.270965,-13.50793 1.16144,-0.35449 2.32289,-0.70898 3.51953,-1.07422 C 142.08078,65.279291 160.63,65.892711 176,70.511961 Z M 93.000005,104.51204 c -4.23382,4.47049 -4.23382,4.47049 -6,10 -0.57235,0.27844 -1.14469,0.55687 -1.73438,0.84375 -2.2318,1.13899 -4.37433,2.35561 -6.51562,3.65625 -1.05961,0.63422 -1.05961,0.63422 -2.14063,1.28125 -0.53109,0.40219 -1.06219,0.80437 -1.60937,1.21875 0,0.66 0,1.32 0,2 7.28558,-1.44445 14.16775,-3.31172 21.125,-5.875 9.128815,-3.35981 18.440905,-5.7846 27.874995,-8.125 -0.495,-1.485 -0.495,-1.485 -1,-3 -2.70563,-1.06132 -5.27539,-1.91161 -8.0625,-2.6875 -0.73928,-0.22494 -1.47856,-0.44988 -2.24024,-0.68164 -6.74129,-1.94041 -13.916035,-3.499259 -19.697255,1.36914 z"
     fill="#000000"
     id="path5" />
  <path
     d="m 360,107.51204 c 25.52301,22.38684 43.99878,53.80179 47,88 1.33217,22.31714 -1.82009,43.9434 -12,64 -0.33,0 -0.66,0 -1,0 0.14262,-1.5628 0.28925,-3.12523 0.4375,-4.6875 0.12181,-1.30518 0.12181,-1.30518 0.24609,-2.63672 0.31641,-2.67578 0.31641,-2.67578 0.81909,-5.03271 5.14593,-27.34896 -4.52221,-55.29984 -19.34546,-77.95166 -3.07486,-4.49423 -6.55893,-8.61292 -10.15722,-12.69141 -0.75411,-0.86367 -1.50821,-1.72734 -2.28516,-2.61719 -9.41555,-10.62681 -19.05432,-20.62847 -31.74219,-27.29687 -3.75196,-2.06544 -7.17024,-4.84104 -9.97265,-8.08594 0,-0.66 0,-1.32 0,-2 -0.55688,-0.0619 -1.11375,-0.12375 -1.6875,-0.1875 -2.60469,-0.91516 -3.76965,-2.21999 -5.61329,-4.21484 -3.14999,-2.96172 -6.8142,-5.2863 -10.37109,-7.73047 C 302,102.51204 302,102.51204 301,99.512041 c -18.03598,-10.94416 -39.49075,-12.38983 -60,-12 1,-2 1,-2 3.08203,-2.76196 0.90105,-0.23453 1.80211,-0.46906 2.73047,-0.7107 0.99386,-0.25974 1.98773,-0.51949 3.01171,-0.78711 1.57202,-0.39735 1.57202,-0.39735 3.17579,-0.80273 1.01707,-0.26877 2.03414,-0.53754 3.08203,-0.81445 36.0929,-9.28964 75.55497,2.33618 103.91797,25.876949 z"
     fill="#000000"
     id="path6" />
  <path
     d="m 323,132.51204 c 0.97066,0.54269 1.94132,1.08539 2.9414,1.64453 10.34442,6.18858 19.82283,14.57148 28.0586,23.35547 0,0.66 0,1.32 0,2 1.485,0.495 1.485,0.495 3,1 2.93862,3.46247 5.43225,7.25735 8,11 0.61617,0.87398 1.23234,1.74797 1.86718,2.64844 9.51334,14.07973 14.43802,30.43758 15.13282,47.35156 0.0412,0.99387 0.0825,1.98773 0.125,3.01172 0.61319,30.5446 -8.3088,58.56224 -29.625,80.80078 -10.93969,10.40734 -10.93969,10.40734 -16.5,13.1875 1.45928,-3.12815 3.23544,-6.00379 5.07177,-8.92261 14.86288,-23.84036 20.4237,-53.52001 15.80323,-81.33911 -1.71678,-7.33462 -3.92463,-14.52164 -6.24244,-21.68628 -0.61775,-2.00395 -1.14345,-4.01323 -1.63256,-6.052 -0.66,0 -1.32,0 -2,0 -1.62641,-2.91588 -3.25088,-5.83284 -4.875,-8.75 -0.4602,-0.825 -0.9204,-1.65 -1.39454,-2.5 -0.44472,-0.79922 -0.88945,-1.59844 -1.34765,-2.42188 -0.40847,-0.73315 -0.81695,-1.4663 -1.2378,-2.22168 -3.06952,-5.64687 -3.06952,-5.64687 -3.54736,-8.55566 -2.90386,-12.39361 -22.7451,-28.47416 -33.08594,-35.05469 -0.82886,-0.49371 -1.65773,-0.98742 -2.51171,-1.49609 -0.98356,-0.62777 -1.96711,-1.25555 -2.98047,-1.90234 -15.98048,-9.76064 -33.75691,-15.84898 -52.39453,-17.66016 -1.19625,-0.14438 -2.3925,-0.28875 -3.625,-0.4375 -0.33,-0.66 -0.66,-1.32 -1,-2 28.93542,-5.63612 58.49329,0.55082 84,15 z"
     fill="#000000"
     id="path7" />
  <path
     d="m 259,129.51204 c 14.67482,1.72852 27.45767,9.19267 39,18 0.84046,0.61875 1.68093,1.2375 2.54687,1.875 2.91825,2.52791 5.20801,5.36662 7.51563,8.4375 0.42087,0.54334 0.84175,1.08668 1.27539,1.64648 5.10253,6.70054 8.24255,12.98018 10.34961,21.10352 0.21205,0.77666 0.4241,1.55332 0.64257,2.35352 5.20351,19.38593 3.31213,38.42788 -5.33007,56.58398 -0.39575,0.86754 -0.79149,1.73508 -1.19922,2.62891 -4.19958,8.46221 -10.29032,15.46667 -16.35645,22.63574 -1.27986,1.53773 -2.5034,3.12196 -3.71777,4.71191 -0.56977,0.66774 -1.13953,1.33547 -1.72656,2.02344 -0.66,0 -1.32,0 -2,0 -0.22043,0.5543 -0.44086,1.10859 -0.66797,1.67969 -5.4603,9.51148 -17.65224,16.80765 -26.33203,23.32031 -1.50308,1.16271 -3.0034,2.32898 -4.5,3.5 -1.49986,1.16686 -2.99987,2.3335 -4.5,3.5 -1.52948,1.19109 -1.52948,1.19109 -3.08985,2.40625 -4.87035,3.77824 -9.73412,7.52048 -14.84765,10.96875 -28.25461,19.53971 -48.93184,46.267 -56.59791,79.97949 -4.51592,25.71445 2.16236,49.42614 16.53541,70.64551 -4.25756,0 -6.07328,-2.46079 -9,-5.25 -0.57597,-0.54358 -1.15194,-1.08716 -1.74537,-1.64722 -20.19336,-19.26525 -34.73869,-40.71077 -36.45776,-69.50512 -0.42985,-32.41757 15.09782,-59.81324 37.20313,-82.59766 0.89074,-0.93715 1.78148,-1.8743 2.69921,-2.83984 C 191,303.51204 191,303.51204 193,303.51204 c 0,-0.66 0,-1.32 0,-2 2.35645,-1.95805 4.7295,-3.80112 7.1875,-5.625 1.56523,-1.17822 3.13032,-2.35661 4.69531,-3.53516 0.83305,-0.62406 1.66611,-1.24813 2.52441,-1.89111 4.40507,-3.31085 8.77724,-6.66476 13.15528,-10.01123 4.97169,-3.79622 9.94647,-7.58602 14.97656,-11.30469 6.70344,-4.95703 13.19927,-9.93442 19.30469,-15.63281 1.99699,-1.85229 4.05638,-3.57928 6.15625,-5.3125 13.29901,-11.72026 26.74027,-30.95214 28.19287,-49.09668 C 289.9005,177.03319 286.3171,158.32349 271,141.51204 c 0,-0.66 0,-1.32 0,-2 -0.66,0 -1.32,0 -2,0 0,-0.66 0,-1.32 0,-2 -0.66,0 -1.32,0 -2,0 0,-0.66 0,-1.32 0,-2 -0.5775,-0.2475 -1.155,-0.495 -1.75,-0.75 -2.5503,-1.41683 -4.26786,-3.12628 -6.25,-5.25 z"
     fill="#000000"
     id="path8" />
  <path
     d="m 226,135.51204 c 17.0857,3.90335 34.61593,12.10712 44.9414,26.75391 8.86112,14.18888 9.69976,28.35444 6.15235,44.44921 -4.01286,13.93033 -13.18623,27.2528 -24.09375,36.79688 -0.66,0 -1.32,0 -2,0 0,0.66 0,1.32 0,2 -0.66,0 -1.32,0 -2,0 0,0.66 0,1.32 0,2 -1.73047,1.41016 -1.73047,1.41016 -4.1875,3.0625 -0.90235,0.61359 -1.80469,1.22719 -2.73438,1.85937 -1.01578,0.68579 -2.03156,1.37157 -3.07812,2.07813 -2.31651,1.59841 -4.62652,3.20612 -6.9375,4.8125 -3.00839,2.08328 -6.01779,4.15769 -9.0625,6.1875 -0.99,-0.33 -1.98,-0.66 -3,-1 0.83402,-0.66645 1.66804,-1.33289 2.52734,-2.01953 19.8743,-16.16009 34.88774,-39.25201 37.71191,-65.17676 1.17793,-15.15507 -2.1894,-29.38542 -11.23925,-41.80371 -0.48856,-0.68191 -0.97711,-1.36383 -1.48047,-2.06641 -5.22893,-6.59748 -13.47506,-13.2521 -21.51953,-15.93359 0,-0.66 0,-1.32 0,-2 z"
     fill="#000000"
     id="path9" />
  <path
     d="m 224,152.51204 c 10.50948,4.79422 18.85891,15.43148 23.23046,25.96484 4.4964,15.05133 -0.0216,29.8395 -7.03198,43.37842 -3.22243,5.95646 -6.94002,11.38791 -11.19848,16.65674 -0.45907,0.56977 -0.91814,1.13953 -1.39112,1.72656 -1.48311,1.83016 -2.97954,3.6482 -4.48388,5.46094 -0.47672,0.57774 -0.95343,1.15548 -1.44458,1.75073 -1.18132,1.39379 -2.42598,2.73341 -3.68042,4.06177 -0.66,0 -1.32,0 -2,0 -0.25524,0.58137 -0.51047,1.16273 -0.77344,1.76172 -1.35159,2.46643 -2.84349,4.08671 -4.85156,6.05078 -0.94747,0.93779 -0.94747,0.93779 -1.91407,1.89453 -2.04796,1.90818 -4.12579,3.75448 -6.23828,5.58984 -4.1514,3.61317 -8.16296,7.35856 -12.16015,11.14063 -9.26476,8.71275 -9.26476,8.71275 -13.4375,12.5 -0.66774,0.60715 -1.33547,1.2143 -2.02344,1.83984 C 173,293.51204 173,293.51204 171,293.51204 c 0,0.66 0,1.32 0,2 -0.66,0 -1.32,0 -2,0 -0.66,1.32 -1.32,2.64 -2,4 -0.66,0 -1.32,0 -2,0 -0.23719,0.56074 -0.47438,1.12148 -0.71875,1.69922 -1.57212,2.82309 -3.52987,4.79421 -5.78125,7.11328 -21.05328,22.59667 -29.37787,50.64682 -28.59766,81.04883 0.297,6.50436 1.39777,12.6451 3.78516,18.70117 1.3125,3.4375 1.3125,3.4375 0.3125,6.4375 -1.93639,-2.88195 -3.86564,-5.76829 -5.78125,-8.66406 -1.33201,-2.01294 -2.68308,-4.00292 -4.0625,-5.98438 -13.86841,-20.48742 -19.28032,-46.06958 -15.03125,-70.41406 4.74102,-23.73728 17.66592,-44.38841 37.875,-57.9375 4.45767,-2.69593 9.09792,-5.04835 13.74676,-7.39383 11.07732,-5.59659 21.69441,-11.38401 31.68292,-18.79758 C 195,243.51204 195,243.51204 197,243.51204 c 0,-0.66 0,-1.32 0,-2 1.43359,-1.41016 1.43359,-1.41016 3.4375,-3.0625 8.2931,-6.62562 8.2931,-6.62562 14.5625,-14.9375 0.66,0 1.32,0 2,0 0.37125,-1.08281 0.37125,-1.08281 0.75,-2.1875 1.25,-2.8125 1.25,-2.8125 3.0625,-5 10.23799,-13.16313 12.68892,-29.37573 10.8789,-45.57422 -1.02501,-5.19763 -3.15889,-9.61842 -5.6914,-14.23828 -0.67133,-1.33099 -1.33924,-2.66373 -2,-4 z"
     fill="#000000"
     id="path10" />
  <path
     d="m 209,165.51204 c 2,1 2,1 3.07031,4.14844 4.23815,16.16282 5.55718,32.91623 -2.28516,48.22265 -14.1028,22.93239 -39.2343,36.54773 -63.78515,45.62891 1.10049,-3.30147 1.48524,-3.59916 4.2539,-5.39063 0.682,-0.45471 1.36399,-0.90943 2.06665,-1.37793 0.73984,-0.48887 1.47968,-0.97775 2.24195,-1.48144 8.73511,-5.95639 16.29323,-12.75822 23.81054,-20.16699 1.30742,-1.27211 2.65639,-2.50143 4.01758,-3.71582 13.99183,-12.68365 25.09802,-34.17922 26.23438,-52.99219 0.0748,-1.15758 0.14953,-2.31516 0.22656,-3.50781 0.1379,-3.12817 0.17698,-6.23655 0.14844,-9.36719 z"
     fill="#000000"
     id="path11" />
  <path
     d="m 27,199.51204 c 0.9075,0.80437 1.815,1.60875 2.75,2.4375 14.636611,12.42787 27.672815,17.8677 46.250005,21.5625 -1.85107,6.14485 -4.52632,9.11529 -9.625,13 -3.72238,4.70195 -4.32828,10.18771 -5.375,16 -5.211535,-1.562 -8.029093,-3.40727 -12.000005,-7 0.33,2.97 0.66,5.94 1,9 -11.581789,-7.3427 -20.630474,-16.36595 -24.537109,-29.85449 -0.829048,-3.84266 -0.647437,-7.72919 -0.650391,-11.64551 -0.01225,-0.85465 -0.02449,-1.7093 -0.03711,-2.58984 -0.0019,-0.82629 -0.0039,-1.65258 -0.0059,-2.50391 -0.0062,-1.12439 -0.0062,-1.12439 -0.01245,-2.27148 0.274553,-2.41276 1.045417,-4.03936 2.24292,-6.13477 z"
     fill="#000000"
     id="path12" />
  <path
     d="m 329,203.51204 c 2,1 2,1 3.21875,4.55078 8.42636,30.22853 8.13042,61.64664 -6.79297,89.96875 -5.12814,8.92156 -11.17774,16.83182 -17.91016,24.57031 -1.58284,1.83109 -3.13061,3.6937 -4.625,5.59766 -1.69415,2.07219 -3.33214,3.68216 -5.39062,5.375 -4.42048,3.75324 -8.44596,7.84997 -12.4629,12.02563 -1.30964,1.34017 -2.66969,2.6307 -4.0371,3.91187 -0.66,0 -1.32,0 -2,0 0,0.66 0,1.32 0,2 -1.53907,1.55078 -1.53907,1.55078 -3.625,3.3125 -0.73348,0.62648 -1.46696,1.25297 -2.22266,1.89844 -1.7207,1.43027 -3.46416,2.83315 -5.21484,4.22656 -4.35502,3.79906 -8.18939,8.08061 -11.51954,12.80859 -0.46793,0.57879 -0.93586,1.15758 -1.41796,1.75391 -0.66,0 -1.32,0 -2,0 -0.2604,0.71801 -0.52079,1.43602 -0.78907,2.17578 -1.26205,2.94342 -2.79318,5.36173 -4.58593,8.01172 -5.05988,7.80063 -8.77486,15.83807 -8.72266,25.23437 0.005,1.53721 0.005,1.53721 0.01,3.10547 0.008,1.06348 0.0168,2.12696 0.0254,3.22266 0.005,1.07894 0.009,2.15789 0.0137,3.26953 0.0118,2.66021 0.0282,5.32031 0.0488,7.98047 -3.53787,-3.239 -6.0785,-6.90978 -8.625,-10.9375 -0.59168,-0.91169 -0.59168,-0.91169 -1.19532,-1.8418 -8.30539,-13.00523 -9.17528,-29.94023 -6.52734,-44.9082 0.9215,-3.22723 2.02528,-6.22827 3.34766,-9.3125 0.48597,-1.13695 0.97195,-2.27391 1.47265,-3.44531 4.09227,-8.80371 9.37415,-16.10152 15.52735,-23.55469 -0.66,-0.33 -1.32,-0.66 -2,-1 1.59576,-1.50894 3.20189,-3.00691 4.8125,-4.5 0.89332,-0.83531 1.78664,-1.67063 2.70703,-2.53125 2.48047,-1.96875 2.48047,-1.96875 5.48047,-1.96875 0.495,-1.485 0.495,-1.485 1,-3 1.80029,-1.36574 3.66811,-2.64307 5.5625,-3.875 29.28564,-19.7472 60.96202,-48.02338 68.03125,-84.16016 0.59456,-5.80277 0.51008,-11.57384 0.46875,-17.40234 -0.005,-1.2085 -0.009,-2.41699 -0.0137,-3.66211 -0.0117,-2.96685 -0.0281,-5.93359 -0.0488,-8.90039 z"
     fill="#000000"
     id="path13" />
  <path
     d="m 114,291.51204 c 0,0.99 0,1.98 0,3 -0.99,0.33 -1.98,0.66 -3,1 -1.04159,1.81096 -1.04159,1.81096 -2,4 -1.09679,1.62999 -2.20178,3.25447 -3.3125,4.875 -8.285335,12.94583 -11.086155,27.46137 -10.999995,42.625 0.005,1.04027 0.01,2.08055 0.0149,3.15234 0.29192,19.56943 4.66258,37.77415 13.297605,55.34766 0.49693,1.15436 0.49693,1.15436 1.0039,2.33203 3.05621,6.80036 7.41703,12.4659 11.98267,18.31128 0.51619,0.66427 1.03238,1.32854 1.56421,2.01294 0.47091,0.59619 0.94182,1.19238 1.427,1.80664 1.02222,1.53711 1.02222,1.53711 1.02222,3.53711 0.66,0 1.32,0 2,0 3,3.46154 3,3.46154 3,6 0.66,0 1.32,0 2,0 1.71436,1.95927 3.38405,3.9588 5,6 -4.22469,0 -6.91942,-2.17176 -10.375,-4.375 -0.711,-0.44972 -1.422,-0.89944 -2.15455,-1.36279 -9.9999,-6.41934 -20.27692,-13.62407 -28.470445,-22.26221 0,-0.66 0,-1.32 0,-2 -1.485,-0.495 -1.485,-0.495 -3,-1 0,-0.66 0,-1.32 0,-2 -1.485,-0.495 -1.485,-0.495 -3,-1 -1.65435,-1.81859 -3.14529,-3.6093 -4.625,-5.5625 -0.43514,-0.57355 -0.87028,-1.1471 -1.31861,-1.73804 -13.86156,-18.74207 -18.26683,-36.24363 -15.6228,-59.51587 3.76681,-19.06804 16.47036,-34.98471 32.277335,-45.77734 9.11536,-6.01502 9.11536,-6.01502 13.28907,-7.40625 z"
     fill="#000000"
     id="path14" />
  <path
     d="m 1955.7161,63.257661 c 1.863,2.00973 3.7258,4.01946 5.6451,6.0901 -3.7257,5.02432 -7.4515,10.04865 -11.2902,15.22523 -9.0141,-1.42316 -17.2713,-3.16591 -25.9323,-6.28041 -19.3184,-5.12493 -39.3163,-4.34144 -58.7447,0.19032 -2.4098,10.06591 -2.4098,10.06591 -2.8225,21.31532 7.6387,10.632209 14.6116,14.211109 26.5169,17.497109 2.9307,0.85374 5.8616,1.70751 8.8812,2.5871 6.1221,1.69954 12.2451,3.39654 18.3687,5.09096 21.1901,6.17815 37.99,12.16435 50.6681,32.68071 2.0886,13.60564 2.6665,27.30092 -2.8006,40.00193 -10.956,15.39231 -24.9156,23.29938 -42.3604,26.9891 -31.0341,3.20497 -62.0965,3.65162 -90.3221,-12.18019 -2.1212,-1.13833 -4.2423,-2.27666 -6.4278,-3.44946 -2.4068,-1.30712 -2.4068,-1.30712 -4.8624,-2.64063 3.5984,-8.6596 6.9192,-15.64405 14.1128,-21.31533 7.5692,0.58328 12.8099,3.88216 19.5815,7.61262 21.9768,10.29938 46.832,10.13236 69.0208,1.17758 5.0772,-2.41366 5.0772,-2.41366 7.3648,-8.7902 1.4116,-9.0063 1.4116,-9.0063 0,-18.27028 -14.5986,-12.9071 -35.4285,-15.55537 -53.3362,-20.28643 -18.1836,-5.04047 -31.2435,-10.37813 -44.9243,-24.628 -7.1301,-14.57481 -7.1785,-26.949579 -3.5282,-42.440339 9.8324,-17.03612 23.2809,-24.60275 41.1036,-29.49889 28.1433,-4.88032 61.5985,-3.75432 86.0882,13.32208 z"
     fill="#000000"
     id="path15"
     style="stroke-width:2.9317" />
  <path
     d="m 554.64942,50.512471 c 2.00411,2.4e-4 4.00821,4.9e-4 6.07306,7.6e-4 6.00292,-0.006 12.00427,-0.0615 18.00694,-0.11967 57.83964,-0.26279 57.83964,-0.26279 81.42988,18.95423 6.01601,10.03035 8.93928,16.75092 7.69588,28.78519 -1.36143,6.769009 -2.9439,13.331609 -4.87333,19.935549 -1.86289,0 -3.72578,0 -5.64512,0 0,2.00973 0,4.01946 0,6.09009 -4.65723,2.00973 -9.31446,4.01946 -14.11282,6.0901 0,2.00973 0,4.01946 0,6.09009 2.50325,0.69083 5.00652,1.38169 7.58564,2.09347 11.08133,4.73681 16.24247,8.98462 23.46256,19.22185 4.05543,12.77638 3.24392,22.57235 0.17641,35.58898 -8.8942,15.41059 -21.10769,22.68886 -36.86974,28.357 -3.75144,0.35648 -7.51598,0.56598 -11.28061,0.67353 -2.25065,0.0707 -4.50131,0.14129 -6.82012,0.21377 -2.41705,0.0603 -4.8341,0.12088 -7.32439,0.183 -2.48733,0.0707 -4.97463,0.14099 -7.53732,0.21377 -5.25268,0.14494 -10.50553,0.28258 -15.75848,0.41382 -8.07189,0.20493 -16.14265,0.44147 -24.21371,0.68096 -5.09747,0.13672 -10.19498,0.27162 -15.29254,0.40441 -2.42848,0.0728 -4.85695,0.14556 -7.35901,0.22046 -5.77085,0.13277 -11.54455,0.10384 -17.31638,0.0411 -4.77849,-5.15511 -3.18244,-11.65939 -3.18781,-18.71631 -0.0141,-5.01447 -0.0141,-5.01447 -0.0282,-10.13023 0.006,-3.6381 0.0113,-7.2762 0.017,-11.02453 -0.003,-3.70583 -0.006,-7.41162 -0.008,-11.22974 -0.002,-7.8536 0.003,-15.7072 0.0141,-23.5608 0.0141,-12.06981 1.3e-4,-24.13924 -0.017,-36.20902 0.002,-7.60862 0.006,-15.217279 0.0113,-22.825939 -0.006,-3.6381 -0.0113,-7.2762 -0.017,-11.02453 0.008,-3.34297 0.017,-6.68595 0.0282,-10.13023 0.003,-2.95927 0.006,-5.91853 0.006,-8.96748 0.88992,-16.64471 21.21442,-10.2675 33.1542,-10.31384 z m 1.07501,21.88033 c -4.30416,9.28685 -3.22795,18.94394 -3.17539,29.118259 -0.0113,2.12553 -0.0226,4.25104 -0.033,6.44097 -0.85385,10.50468 -0.85385,10.50468 3.20847,19.25161 8.55956,0.85191 17.16426,0.70608 25.7559,0.76126 2.37955,0.0627 4.75909,0.12546 7.21077,0.19032 15.67762,0.10505 26.55486,-2.04752 40.42,-10.08672 6.89318,-9.37646 6.79605,-18.778979 5.64512,-30.450469 -4.67668,-8.82929 -9.4143,-9.44195 -18.52308,-12.39428 -12.75011,-3.3082 -24.87531,-3.52884 -37.9282,-3.21158 -2.18673,0.0274 -4.37342,0.0548 -6.62642,0.0831 -5.31841,0.0709 -10.63638,0.17996 -15.95409,0.2975 z m 0,73.081119 c 0,18.08757 0,36.17515 0,54.81083 9.40994,0.24818 18.81419,0.42862 28.22563,0.57095 2.63789,0.0764 5.27577,0.15317 7.99359,0.23203 17.24694,0.19519 30.00056,-1.87547 45.63513,-9.93802 4.53358,-9.78185 4.55108,-19.86948 2.82256,-30.45047 -8.62913,-10.37322 -15.77076,-13.13703 -28.22563,-15.22523 -4.57149,-0.23295 -9.15048,-0.32923 -13.72693,-0.2975 -2.50144,0.009 -5.00288,0.0183 -7.58013,0.0305 -3.86133,0.0384 -3.86133,0.0384 -7.80063,0.0773 -2.6288,0.0152 -5.25759,0.0274 -7.96605,0.0417 -6.45926,0.0356 -12.91842,0.0904 -19.37754,0.1486 z"
     fill="#000000"
     id="path16"
     style="stroke-width:2.9317" />
  <path
     d="m 753.02482,50.513231 c 6.00886,-0.006 12.01624,-0.0618 18.02486,-0.11967 32.59486,-0.1486 56.41146,1.70453 82.10243,25.04432 7.2329,14.4056 6.77977,29.646659 4.58667,45.675699 -4.89589,11.12717 -9.84663,17.43971 -19.58154,23.78942 -2.83256,1.91357 -2.83256,1.91357 -5.72233,3.86578 -5.74434,2.79526 -5.74434,2.79526 -17.0346,2.79526 9.61101,16.60985 21.12673,30.07172 33.67232,44.14127 11.48871,13.09644 11.48871,13.09644 11.48871,19.80471 1.8629,0 3.72579,0 5.64513,0 -0.93145,3.01459 -1.86289,6.02919 -2.82257,9.13514 -13.21233,1.84295 -23.95713,1.36783 -36.69333,-3.04505 -14.69893,-12.51797 -25.68748,-29.49858 -36.69333,-45.6757 -1.73918,-2.36694 -3.47839,-4.73386 -5.27027,-7.17251 -3.19743,-5.00767 -3.19743,-5.00767 -3.19743,-11.09777 -5.11567,-0.0819 -10.23165,-0.14098 -15.34769,-0.19031 -2.84892,-0.0353 -5.69782,-0.0707 -8.63308,-0.10719 -6.89866,-0.5739 -6.89866,-0.5739 -9.88999,3.34243 -0.21056,4.49884 -0.23513,9.00825 -0.17641,13.51239 0.0226,2.72413 0.0438,5.44826 0.0661,8.25494 0.0364,2.86542 0.0729,5.73087 0.11036,8.68313 0.0716,5.64585 0.13124,11.29192 0.1764,16.93807 0.0327,2.5161 0.0655,5.03219 0.0994,7.62453 -0.27576,5.88787 -0.27576,5.88787 -3.09819,8.93291 -4.10852,0.30025 -8.23082,0.39501 -12.34872,0.38063 -2.23403,0.009 -4.46803,0.0152 -6.76975,0.0244 -6.28461,-0.40442 -6.28461,-0.40442 -14.75229,-3.44946 0,-55.2676 0,-110.53519 0,-167.477559 12.18255,-6.57142 28.52463,-3.61097 42.05936,-3.60929 z m -5.36604,24.92462 c -2.62411,10.46768 -3.20037,19.76567 -3.17539,30.640779 -0.008,3.17553 -0.0141,6.35105 -0.0226,9.62283 0.0322,8.72147 0.0322,8.72147 3.19743,17.59227 8.05771,0.24848 16.10873,0.42862 24.1682,0.57095 2.25766,0.0764 4.51531,0.15316 6.84141,0.23203 15.40793,0.20341 25.90688,-2.07791 39.55449,-9.93803 5.24714,-7.13749 5.63208,-12.08572 6.88,-21.12501 -1.66289,-12.557769 -6.38269,-16.678419 -15.3477,-24.550679 -7.97126,-2.86652 -12.78389,-3.40208 -21.0259,-3.34243 -2.39229,0.009 -4.78458,0.0183 -7.24936,0.0305 -2.48688,0.0244 -4.97377,0.0512 -7.53602,0.0773 -3.77946,0.0213 -3.77946,0.0213 -7.63526,0.0417 -6.21681,0.0359 -12.43325,0.0859 -18.64986,0.1486 z"
     fill="#000000"
     id="path17"
     style="stroke-width:2.9317" />
  <path
     d="m 1049.6732,69.347761 c 16.0309,15.65062 27.0056,32.053949 29.1076,55.524499 0.8745,27.47509 -2.1584,47.34012 -18.6995,68.56114 -30.9379,27.9432 -57.5907,34.46913 -97.71331,31.88228 -12.64129,-1.45164 -23.12739,-6.108 -34.06511,-12.85074 -4.5408,-2.63777 -4.5408,-2.63777 -9.17333,-5.32883 -18.26539,-16.12237 -28.91376,-34.73275 -31.39003,-60.2943 -0.47336,-28.92922 2.11893,-46.63976 20.13285,-68.228069 36.25683,-37.68662 101.06673,-41.37326 141.80083,-9.26598 z m -110.08,18.27027 c 0,2.00974 0,4.01947 0,6.0901 -1.863,0 -3.72586,0 -5.6452,0 -10.93588,21.804969 -14.57256,40.055879 -10.05537,64.552609 5.30926,18.79427 16.97057,29.69733 32.43747,39.32391 17.64299,8.1522 36.10639,7.10894 53.7169,-0.30925 17.6147,-9.42875 26.3601,-22.45838 33.0989,-42.28571 3.068,-22.50685 0.9616,-41.74098 -10.4082,-61.281559 -14.7846,-14.72993 -28.8421,-20.42955 -48.68911,-22.07659 -16.4652,1.18419 -30.72099,6.10849 -44.45539,15.98649 z"
     fill="#000000"
     id="path18"
     style="stroke-width:2.9317" />
  <path
     d="m 1105.7606,50.683481 c 2.9292,-0.009 5.8583,-0.0183 8.8763,-0.0305 4.7806,0.009 4.7806,0.009 9.6578,0.0183 3.2471,-0.003 6.4942,-0.006 9.8397,-0.009 6.8811,-0.002 13.7623,0.003 20.6435,0.0152 10.5746,0.0152 21.1489,1.5e-4 31.7235,-0.0183 6.6668,0.002 13.3337,0.006 20.0006,0.0122 3.1869,-0.006 6.374,-0.0122 9.6576,-0.0183 2.9292,0.009 5.8584,0.0183 8.8765,0.0305 2.5924,0.003 5.1851,0.006 7.8564,0.006 5.8925,0.38666 5.8925,0.38666 8.715,3.43171 0,7.03405 0,14.06811 0,21.31532 -19.5603,0 -39.1207,0 -59.2738,0 0.032,10.51576 0.065,21.03153 0.099,31.865919 0.022,10.13803 0.04,20.27602 0.057,30.41405 0.014,7.06844 0.034,14.13687 0.057,21.20531 0.034,10.13556 0.051,20.27099 0.062,30.40658 0.014,3.18141 0.03,6.36281 0.044,9.64062 2e-4,2.92605 4e-4,5.85209 5e-4,8.86681 0,2.58981 0.014,5.17959 0.02,7.84788 -0.3394,5.91506 -0.3394,5.91506 -3.1621,8.96011 -4.6975,0.29902 -9.407,0.39506 -14.1128,0.38063 -3.8422,0.0122 -3.8422,0.0122 -7.762,0.0244 -6.3507,-0.40441 -6.3507,-0.40441 -9.1733,-3.44946 -0.2628,-4.58033 -0.3315,-9.17384 -0.3205,-13.76294 3e-4,-2.92605 5e-4,-5.85209 7e-4,-8.86681 0.014,-3.1814 0.029,-6.36281 0.044,-9.64062 0,-3.2399 0.01,-6.47983 0.011,-9.8179 0.017,-10.39448 0.051,-20.78874 0.087,-31.18316 0.014,-7.02779 0.029,-14.05557 0.039,-21.08339 0.029,-17.26928 0.084,-34.538129 0.1378,-51.807409 -19.5603,0 -39.1207,0 -59.2738,0 0,-24.7389 0,-24.7389 16.5715,-24.75437 z"
     fill="#000000"
     id="path19"
     style="stroke-width:2.9317" />
  <path
     d="m 1286.5922,50.506531 c 7.7306,0.078 12.4264,0.91613 19.9343,3.61599 0,23.11191 0,46.223809 0,70.036069 29.8063,-1.00486 59.6126,-2.00973 90.3221,-3.04504 0.9314,-22.107039 1.8629,-44.214079 2.8225,-66.991029 14.1129,-3.04504 14.1129,-3.04504 33.8708,0 0,55.267599 0,110.535189 0,167.477559 -11.1773,0 -22.3547,0 -33.8708,0 0,-24.11677 0,-48.23354 0,-73.08112 -29.8063,0 -59.6125,0 -90.322,0 -0.8166,23.91339 -0.8166,23.91339 -1.6036,47.82791 -0.1073,2.95988 -0.2151,5.91975 -0.3259,8.96934 -0.1552,4.56863 -0.1552,4.56863 -0.3136,9.22956 -0.5795,7.05431 -0.5795,7.05431 -3.4021,10.09936 -5.2298,0.22015 -10.467,0.25517 -15.7004,0.19031 -2.8564,-0.0274 -5.7124,-0.0551 -8.6553,-0.0831 -3.3127,-0.053 -3.3127,-0.053 -6.6925,-0.10718 -3.5474,-7.65431 -3.2,-12.93366 -3.2327,-21.49971 -0.017,-3.21097 -0.036,-6.42194 -0.055,-9.73023 0,-3.47964 0,-6.95924 -0.014,-10.5443 -0.014,-3.55911 -0.019,-7.11819 -0.028,-10.78515 -0.014,-7.53592 -0.019,-15.07183 -0.019,-22.60777 0,-11.56844 -0.058,-23.13602 -0.1115,-34.7043 -0.014,-7.30732 -0.014,-14.61464 -0.017,-21.921959 -0.019,-3.47961 -0.041,-6.95924 -0.062,-10.5443 0.014,-3.21097 0.017,-6.42197 0.025,-9.73023 0,-2.83515 -0.014,-5.67027 -0.014,-8.59132 1.3238,-12.93433 6.0205,-12.89182 17.4569,-13.47933 z"
     fill="#000000"
     id="path20"
     style="stroke-width:2.9317" />
  <path
     d="m 1496.3446,50.683481 c 2.4769,-0.009 4.9538,-0.0183 7.5057,-0.0305 4.0179,0.009 4.0179,0.009 8.117,0.0183 2.7418,-0.003 5.4838,-0.006 8.3088,-0.009 5.8011,-0.002 11.6024,0.003 17.4036,0.0152 8.9141,0.0152 17.8279,1.5e-4 26.7419,-0.0183 5.6251,0.002 11.25,0.006 16.8749,0.0122 2.6842,-0.006 5.3685,-0.0122 8.1342,-0.0183 2.4679,0.009 4.936,0.0183 7.4788,0.0305 2.183,0.003 4.366,0.006 6.615,0.006 5.0164,0.38666 5.0164,0.38666 7.8389,3.43171 0.3528,9.13513 0.3528,9.13513 0,18.27027 -5.5068,5.94083 -15.9383,3.81895 -23.4737,4.00853 -2.0633,0.0633 -4.1268,0.12668 -6.2528,0.19184 -6.6146,0.19976 -13.2296,0.37884 -19.8447,0.55761 -4.4746,0.13155 -8.9492,0.26431 -13.4239,0.39848 -10.9903,0.32916 -21.981,0.63069 -32.972,0.93373 -0.9314,15.07298 -1.8629,30.145959 -2.8226,45.675699 27.012,0 54.0239,0 81.8543,0 0,7.03405 0,14.06811 0,21.31532 -7.8077,4.21157 -14.1416,3.3864 -22.8672,3.34243 -5.1301,-0.0152 -5.1301,-0.0152 -10.3641,-0.0305 -3.5874,-0.0244 -7.175,-0.0512 -10.8712,-0.0773 -3.6094,-0.0152 -7.2187,-0.0274 -10.9374,-0.0417 -8.9382,-0.0359 -17.8763,-0.0907 -26.8144,-0.14859 0.9314,16.07784 1.8629,32.15569 2.8226,48.72074 6.8948,-0.0353 13.7898,-0.0707 20.8935,-0.10719 6.651,-0.0244 13.302,-0.0423 19.9529,-0.0603 4.6353,-0.0152 9.2709,-0.0362 13.9061,-0.0624 6.6488,-0.0369 13.2974,-0.0542 19.9461,-0.0676 2.0846,-0.0152 4.1692,-0.0314 6.317,-0.0475 4.9849,-5.8e-4 9.9696,0.15621 14.9515,0.345 0.9315,1.00486 1.8629,2.00973 2.8227,3.04505 -0.811,7.12373 -1.7483,14.23227 -2.8227,21.31532 -13.2678,2.8174 -26.1282,3.49057 -39.604,3.44946 -3.1931,0.003 -3.1931,0.003 -6.4504,0.009 -4.4786,0.002 -8.9573,-0.003 -13.4359,-0.0152 -6.819,-0.0152 -13.6376,-1.2e-4 -20.4566,0.0183 -4.3698,-0.002 -8.7397,-0.006 -13.1095,-0.0122 -2.0203,0.006 -4.0408,0.0122 -6.1224,0.0183 -11.6992,-0.0585 -21.7812,-1.36439 -33.4817,-3.46816 0,-55.26759 0,-110.53518 0,-167.477549 6.5545,-3.53557 10.3464,-3.43098 17.6417,-3.43905 z"
     fill="#000000"
     id="path21"
     style="stroke-width:2.9317" />
  <path
     d="m 1679.7113,50.512471 c 1.9316,2.4e-4 3.8633,4.9e-4 5.8533,7.6e-4 5.7675,-0.006 11.5334,-0.0615 17.3006,-0.11967 60.1124,-0.0956 60.1124,-0.0956 83.4971,18.95423 7.8713,10.15967 11.0026,18.83111 12.5251,31.972979 -1.8671,16.11573 -5.5364,27.70914 -16.5824,39.01466 -11.1947,7.95318 -16.0967,11.22861 -29.8134,11.22861 8.237,16.84227 20.3918,29.34076 32.5311,42.91019 1.6174,1.83503 3.2347,3.6701 4.9011,5.56077 1.4832,1.65717 2.9665,3.31438 4.4949,5.0218 3.2338,4.36312 3.2338,4.36312 3.2338,10.45322 1.863,0 3.7258,0 5.6452,0 0,2.00973 0,4.01946 0,6.09009 -37.1927,4.18286 -37.1927,4.18286 -49.45,-5.78084 -7.0588,-9.90782 -11.806,-18.90471 -15.4689,-30.75972 -1.8628,0 -3.7258,0 -5.6451,0 -2.3842,-3.93429 -4.6598,-7.94553 -6.88,-11.98987 -5.7037,-8.70049 -8.4025,-11.89712 -18.071,-14.66619 -7.6559,-0.66967 -15.3517,-0.74936 -23.0326,-0.74936 0,21.10218 0,42.20435 0,63.94598 -12.1757,3.28384 -25.0417,6.28501 -36.6933,0 -0.072,-23.79561 -0.1214,-47.59115 -0.155,-71.38685 -0.014,-8.10232 -0.033,-16.20458 -0.057,-24.30687 -0.033,-11.61695 -0.051,-23.23377 -0.062,-34.850739 -0.014,-3.64766 -0.03,-7.29532 -0.043,-11.05349 -3e-4,-3.35281 -4e-4,-6.70562 -7e-4,-10.16001 0,-2.96846 -0.014,-5.9369 -0.019,-8.99531 0.8322,-16.48558 20.3154,-10.27813 31.9941,-10.33434 z m 5.0388,24.92538 c -2.4157,12.15808 -3.2016,23.32091 -3.1754,35.779289 -0.014,3.50132 -0.014,7.00267 -0.022,10.61007 -0.5143,8.14474 -0.5143,8.14474 3.1973,11.46652 9.6206,0.85243 19.2821,0.70597 28.9313,0.76126 2.6962,0.0627 5.3923,0.12546 8.1699,0.19032 19.5536,0.18453 19.5536,0.18453 36.2855,-10.08672 6.5513,-9.76025 7.209,-18.64055 5.6451,-30.450459 -6.1324,-7.83448 -11.2336,-13.67217 -19.7579,-18.27028 -4.5006,-0.25578 -9.0108,-0.32664 -13.5174,-0.2975 -3.9842,0.0152 -3.9842,0.0152 -8.0489,0.0305 -2.7798,0.0244 -5.5594,0.0512 -8.4234,0.0773 -4.2026,0.0213 -4.2026,0.0213 -8.4897,0.0417 -6.9318,0.0359 -13.8631,0.0862 -20.7945,0.1486 z"
     fill="#000000"
     id="path22"
     style="stroke-width:2.9317" />
  <path
     d="m 1009.2752,275.64965 c 2.154,0.25122 4.308,0.50244 6.5271,0.76127 19.5451,38.19907 38.7382,76.48148 56.4514,115.71176 -10.956,3.93983 -17.1257,3.42138 -28.2257,0 -4.8513,-10.84798 -4.8513,-10.84798 -8.4676,-21.31532 -9.1112,-0.71038 -18.2161,-1.14092 -27.3436,-1.52253 -3.8614,-0.30618 -3.8614,-0.30618 -7.8007,-0.61854 -7.71621,-0.24208 -13.87821,-0.17174 -21.30711,2.14107 -6.5545,7.29684 -10.4671,15.04186 -14.1128,24.36037 -6.5201,-1.00487 -13.04019,-2.00973 -19.75789,-3.04505 3.8587,-13.65652 8.9078,-25.70491 15.16019,-38.27718 0.9117,-1.83774 1.8234,-3.67546 2.7627,-5.56887 1.9175,-3.85737 3.8416,-7.711 5.7718,-11.56101 2.9407,-5.86963 5.857,-11.75287 8.7702,-17.63837 21.11,-42.37766 21.11,-42.37766 31.57201,-43.4276 z m -4.7631,34.25678 c -2.9084,5.94792 -5.78361,11.91468 -8.64411,17.88964 -1.6046,3.32078 -3.2091,6.64152 -4.8623,10.06294 -1.1315,2.83402 -2.2631,5.66805 -3.4289,8.58797 0.9313,2.00973 1.8628,4.01947 2.8225,6.0901 11.17741,0 22.35471,0 33.87081,0 0.9314,-2.00973 1.8629,-4.01946 2.8225,-6.0901 -3.4548,-8.94305 -3.4548,-8.94305 -8.2912,-18.65091 -1.5973,-3.33645 -3.1946,-6.67294 -4.8403,-10.11049 -1.8829,-3.85068 -1.8829,-3.85068 -3.8039,-7.77915 -1.8629,0 -3.7257,0 -5.6451,0 z"
     fill="#000000"
     id="path23"
     style="stroke-width:2.9317" />
  <path
     d="m 1107.2228,276.19977 c 9.6324,0.28045 19.2616,0.60417 28.8913,0.97241 4.983,0.12363 4.983,0.12363 10.0665,0.24969 17.6337,0.66336 32.1041,1.31899 47.4433,11.16914 6.0857,10.87383 8.4678,18.13931 8.4678,30.8311 -3.6172,11.21886 -8.4443,16.52354 -16.9354,23.97974 -6.5272,2.4741 -6.5272,2.4741 -11.2903,3.04504 1.8629,5.02433 3.7258,10.04866 5.6452,15.22523 1.8628,0 3.7258,0 5.6451,0 4.8733,5.00768 4.8733,5.00768 10.2318,11.60924 1.7827,2.15495 3.5655,4.30993 5.4025,6.5302 4.1236,6.22094 4.1236,6.22094 4.1236,15.35608 -20.3548,1.86095 -20.3548,1.86095 -29.6369,-5.89978 -4.0903,-5.40554 -8.1527,-10.8365 -12.1393,-16.33144 -12.2089,-16.85957 -12.2089,-16.85957 -30.1992,-23.6348 -3.2601,0.0627 -6.5201,0.12546 -9.879,0.19032 0,14.06811 0,28.13623 0,42.63065 -15.8769,3.42568 -15.8769,3.42568 -25.403,-3.04505 -0.07,-15.55604 -0.1209,-31.11197 -0.155,-46.66817 -0.014,-5.29612 -0.033,-10.59225 -0.058,-15.88835 -0.034,-7.59605 -0.05,-15.19192 -0.063,-22.78803 -0.014,-2.38214 -0.029,-4.76425 -0.045,-7.21856 -6e-4,-5.68735 0.1448,-11.37434 0.3198,-17.05856 2.8225,-3.04505 2.8225,-3.04505 9.566,-3.25619 z m 15.837,18.48142 c 0,13.06325 0,26.1265 0,39.58561 5.7633,0.12545 11.5266,0.25121 17.4646,0.38063 3.2419,0.0706 6.4837,0.14129 9.8239,0.21407 9.254,-0.5852 15.3442,-2.07441 23.5177,-6.68483 3.9922,-8.61394 3.723,-14.84085 2.8226,-24.36037 -7.0413,-8.31151 -11.1343,-9.12171 -21.6544,-10.02724 -3.8378,0.0603 -7.6752,0.16869 -11.5108,0.32116 -1.9684,0.0411 -3.9369,0.0825 -5.9649,0.12484 -4.8338,0.10719 -9.6666,0.27101 -14.4987,0.44604 z"
     fill="#000000"
     id="path24"
     style="stroke-width:2.9317" />
  <path
     d="m 1362.9778,276.41092 c 6.6033,0.87484 13.1924,1.88601 19.7579,3.04504 0.014,2.42678 0.022,4.85359 0.035,7.35391 0.093,10.99996 0.2921,21.99474 0.494,32.99296 0.017,3.81928 0.032,7.63856 0.049,11.57355 0.082,3.6701 0.1637,7.34024 0.2482,11.12154 0.067,5.07095 0.067,5.07095 0.134,10.24433 1.2024,9.48532 1.2024,9.48532 8.447,16.04003 9.5683,6.44508 16.0038,7.90533 27.285,8.11517 7.3937,-2.21567 12.9069,-5.14391 19.7579,-9.13514 3.8625,-8.33365 3.4333,-15.35507 3.7157,-24.66963 0.1185,-3.68974 0.2365,-7.37948 0.3583,-11.18104 0.1115,-3.87029 0.2218,-7.7406 0.3363,-11.72818 0.1213,-3.89386 0.2439,-7.78771 0.3693,-11.79956 0.3002,-9.64229 0.5882,-19.28485 0.8656,-28.92794 7.4515,0 14.9032,0 22.5805,0 0.3288,13.82893 0.5288,27.65667 0.7056,41.48876 0.095,3.91346 0.1892,7.82696 0.2867,11.85902 0.348,36.21834 0.348,36.21834 -12.2826,50.1838 -14.8478,14.19625 -33.7198,13.99141 -52.6364,13.35777 -16.2635,-2.02447 -26.6274,-7.28174 -37.9012,-19.93629 -6.6857,-10.64737 -6.7771,-16.58283 -6.6312,-29.34353 0.022,-3.92132 0.048,-7.84264 0.072,-11.8828 0.041,-2.02298 0.082,-4.04596 0.1228,-6.13023 0.1256,-6.22815 0.1736,-12.45272 0.2074,-18.68215 0.3257,-30.40339 0.3257,-30.40339 3.6219,-33.95939 z"
     fill="#000000"
     id="path25"
     style="stroke-width:2.9317" />
  <path
     d="m 843.62596,279.45596 c 11.64307,-0.25121 23.28615,-0.50243 35.28205,-0.76126 3.62572,-0.11084 7.25145,-0.22168 10.98705,-0.33602 19.76393,-0.20554 33.17998,1.14284 49.69814,13.27747 5.8887,10.53747 7.0149,18.13556 5.6451,30.45046 -7.1333,15.09515 -13.77373,21.20443 -28.22568,27.40542 -8.81244,1.44497 -17.55885,1.82541 -26.46154,2.09347 -3.52022,0.15591 -3.52022,0.15591 -7.11153,0.31522 -5.7431,0.24909 -11.488,0.44796 -17.23308,0.63636 0.0327,2.82227 0.0654,5.64451 0.0993,8.55228 0.0254,3.64657 0.0511,7.29313 0.077,11.0502 0.0327,3.63871 0.0655,7.27742 0.0994,11.02639 -0.27577,8.95673 -0.27577,8.95673 -3.0982,12.00178 -6.52011,-1.00487 -13.04024,-2.00973 -19.75794,-3.04505 0,-37.18002 0,-74.36003 0,-112.66672 z m 22.58051,15.22523 c -0.0759,6.02643 -0.13069,12.05318 -0.17641,18.07997 -0.0327,3.3561 -0.0654,6.71219 -0.0993,10.16997 -0.60678,8.03021 -0.60678,8.03021 3.09821,11.33567 5.93111,0.38373 11.87577,0.53529 17.81744,0.57094 4.87372,0.0649 4.87372,0.0649 9.84589,0.13094 8.615,-0.66954 13.40636,-1.309 20.32026,-6.79188 2.82488,-10.42146 2.82488,-10.42146 2.82256,-21.31533 -4.86121,-9.89183 -4.86121,-9.89183 -14.11281,-12.18018 -6.7598,-0.21224 -13.52483,-0.25731 -20.28718,-0.19032 -3.59119,0.0274 -7.18233,0.0548 -10.88232,0.0831 -2.75431,0.0353 -5.50862,0.0706 -8.3464,0.10719 z"
     fill="#000000"
     id="path26"
     style="stroke-width:2.9317" />
  <path
     d="m 1249.9601,279.11026 c 3.651,0.0152 7.302,0.032 11.0636,0.0484 2.9073,0.006 2.9073,0.006 5.8732,0.0122 6.2123,0.0183 12.4245,0.0554 18.6369,0.0941 4.2024,0.0152 8.4051,0.0305 12.6078,0.0417 10.3218,0.0335 20.6436,0.0862 30.9655,0.1486 0,5.02433 0,10.04865 0,15.22523 -21.4233,0 -42.8465,0 -64.919,0 0,11.05352 0,22.10704 0,33.49551 16.766,0 33.532,0 50.8061,0 0,5.02433 0,10.04866 0,15.22524 -16.766,0 -33.532,0 -50.8061,0 0,16.07784 0,32.15569 0,48.72074 -15.877,3.42568 -15.877,3.42568 -25.4031,0 -0.069,-15.55605 -0.1214,-31.11197 -0.155,-46.66817 -0.014,-5.29613 -0.033,-10.59225 -0.057,-15.88835 -0.034,-7.59605 -0.051,-15.19192 -0.062,-22.78803 -0.014,-2.38214 -0.03,-4.76425 -0.044,-7.21856 -6e-4,-5.68735 0.1448,-11.37434 0.3198,-17.05856 2.8225,-3.04505 2.8225,-3.04505 11.175,-3.39075 z"
     fill="#000000"
     id="path27"
     style="stroke-width:2.9317" />
  <path
     d="m 1532.5852,280.66923 c 9.0763,13.33599 17.1289,27.29421 25.21,41.34601 1.3228,2.26094 2.6452,4.52189 4.008,6.85135 1.7768,3.08893 1.7768,3.08893 3.5894,6.24028 3.8047,6.11076 3.8047,6.11076 12.1001,11.34011 0.6331,-1.95869 1.266,-3.91739 1.9183,-5.93546 5.1066,-12.72954 11.4763,-24.31564 18.1925,-36.12424 1.8991,-3.60043 1.8991,-3.60043 3.8368,-7.27361 9.6995,-16.87976 9.6995,-16.87976 18.818,-19.20849 6.2543,-0.006 6.2543,-0.006 16.5082,1.55078 4.4918,9.69196 2.8227,20.05784 2.4808,30.66456 -0.1002,3.63682 -0.1002,3.63682 -0.2018,7.34712 -0.2166,7.75717 -0.4536,15.51345 -0.6912,23.26988 -0.1502,5.25347 -0.2992,10.50696 -0.4466,15.76049 -0.3647,12.89048 -0.7481,25.78019 -1.1412,38.66972 -6.5849,0.12911 -13.1729,0.12454 -19.7579,0 -2.8225,-3.04505 -2.8225,-3.04505 -3.143,-9.54032 0.014,-2.7906 0.03,-5.5812 0.045,-8.45639 0.014,-3.01262 0.017,-6.02527 0.028,-9.12918 0.035,-4.75447 0.035,-4.75447 0.072,-9.60499 0.014,-3.18143 0.025,-6.36283 0.038,-9.64067 0.033,-7.88835 0.081,-15.77636 0.1383,-23.66452 -12.0054,11.91313 -19.5292,25.92211 -27.95,40.85834 -5.9209,7.8624 -5.9209,7.8624 -13.6939,10.49113 -2.0922,0.13733 -4.1843,0.27466 -6.3397,0.41632 -1.5319,-2.49645 -3.0637,-4.99293 -4.6419,-7.56505 -2.0193,-3.2815 -4.0386,-6.56302 -6.1192,-9.94397 -1.9975,-3.2501 -3.995,-6.50023 -6.0531,-9.84884 -3.4348,-5.46972 -6.9797,-10.86609 -10.739,-16.08165 -3.495,-5.28123 -3.495,-5.28123 -3.495,-11.37133 -1.863,0 -3.7259,0 -5.6452,0 0,23.1119 0,46.22381 0,70.03607 -11.2902,3.04505 -11.2902,3.04505 -22.5805,0 0,-37.18002 0,-74.36003 0,-112.66672 19.7579,-3.04504 19.7579,-3.04504 25.6567,1.21327 z"
     fill="#000000"
     id="path28"
     style="stroke-width:2.9317" />
</svg>
