<?xml version="1.0" encoding="UTF-8"?>
<svg version="1.1" xmlns="http://www.w3.org/2000/svg" width="514" height="604">
<path d="M0 0 C21.84516719 6.76431323 43.97171025 11.32397946 66.58203125 5.31640625 C64.25436615 10.55690366 61.96141852 14.4710906 57.58203125 18.31640625 C56.90140625 19.01765625 56.22078125 19.71890625 55.51953125 20.44140625 C43.79144925 27.92741604 26.52195173 27.09866967 13.21484375 25.33984375 C3.62017541 24.18466852 -5.88616756 23.91778324 -15.54296875 23.94140625 C-16.38903687 23.94195007 -17.23510498 23.9424939 -18.10681152 23.9430542 C-39.09915491 24.00476444 -58.69850517 26.93713804 -78.41796875 34.31640625 C-79.46887695 34.70868408 -79.46887695 34.70868408 -80.54101562 35.10888672 C-88.57070428 38.18693404 -95.30934884 41.84015084 -102.23046875 46.94140625 C-105.72761626 49.50203884 -108.30747486 51.32666485 -112.80078125 51.28515625 C-115.54232513 50.52790116 -117.9157513 49.65855199 -120.41796875 48.31640625 C-115.78557664 37.27587172 -103.3318937 30.07099508 -93.41796875 24.31640625 C-92.83031738 23.96449219 -92.24266602 23.61257812 -91.63720703 23.25 C-76.72327574 14.36963663 -60.48837955 9.91872143 -43.41796875 7.31640625 C-42.60457031 7.18492188 -41.79117188 7.0534375 -40.953125 6.91796875 C-33.83277569 5.93676605 -26.58812458 6.23138464 -19.41796875 6.31640625 C-19.41796875 5.65640625 -19.41796875 4.99640625 -19.41796875 4.31640625 C-50.74210283 1.00376326 -80.37370789 4.18323683 -106.41796875 23.31640625 C-110.63321514 26.75962467 -114.5391837 30.50262877 -118.41796875 34.31640625 C-119.2790625 35.16203125 -120.14015625 36.00765625 -121.02734375 36.87890625 C-125.33563607 41.14992766 -125.33563607 41.14992766 -129.41796875 45.6328125 C-130.40796875 46.46619141 -130.40796875 46.46619141 -131.41796875 47.31640625 C-133.18359375 47.0390625 -133.18359375 47.0390625 -135.41796875 46.31640625 C-138.021833 46.40227837 -140.57548289 46.54072452 -143.16796875 46.75390625 C-144.21404297 46.8322168 -144.21404297 46.8322168 -145.28125 46.91210938 C-146.99393078 47.04114697 -148.70601941 47.17800239 -150.41796875 47.31640625 C-150.74796875 46.65640625 -151.07796875 45.99640625 -151.41796875 45.31640625 C-141.20734812 20.89970474 -119.11265062 4.39045346 -95.65625 -5.89453125 C-63.6844233 -18.60679717 -31.24210069 -9.71963678 0 0 Z " fill="#000000" transform="translate(360.41796875,12.68359375)"/>
<path d="M0 0 C-0.57105469 0.31710937 -1.14210938 0.63421875 -1.73046875 0.9609375 C-21.14741138 12.13571212 -35.99355024 26.83220187 -46 47 C-46.21527344 47.87527344 -46.43054688 48.75054687 -46.65234375 49.65234375 C-48.50684812 52.88294411 -50.4372887 53.19315273 -53.92578125 54.16796875 C-55.07626953 54.45607422 -55.07626953 54.45607422 -56.25 54.75 C-57.00152344 54.95753906 -57.75304687 55.16507813 -58.52734375 55.37890625 C-62.65682577 56.49595636 -66.76275075 57.37925648 -71 58 C-69.46075548 41.54600681 -62.19861631 29.67345306 -50.375 18.3125 C-41.18678879 10.76697488 -11.79498918 -5.89749459 0 0 Z " fill="#000000" transform="translate(246,9)"/>
<path d="M0 0 C5.04116174 0.85715081 10.08299841 1.71030422 15.125 2.5625 C16.40834229 2.78019043 17.69168457 2.99788086 19.01391602 3.22216797 C43.56023266 7.3271136 72.79300054 11.5514661 96 0 C96.99 -0.33 97.98 -0.66 99 -1 C96.66835117 10.41536405 89.49946384 19.36516047 80 26 C66.99381669 32.65033147 49.55352508 31.18196315 36 27 C30.47774456 25.04982314 25.01732006 22.93593778 19.54833984 20.84204102 C-17.13401077 7.00322795 -55.39034092 3.9328842 -94 10 C-96.33231634 10.34104871 -98.66592835 10.6711226 -101 11 C-93.4149734 4.93563778 -83.77861372 2.97750987 -74.5 0.8125 C-73.43652344 0.55275391 -72.37304688 0.29300781 -71.27734375 0.02539062 C-48.12146913 -5.47235384 -23.28326918 -4.04302143 0 0 Z " fill="#000000" transform="translate(375,47)"/>
<path d="M0 0 C21.83375596 -1.09196216 43.21162398 3.44249886 63.86083984 10.12548828 C64.75625488 10.41472168 65.65166992 10.70395508 66.57421875 11.00195312 C81.6828634 15.98874676 94.77846055 22.5834123 106.86083984 33.12548828 C107.68068359 33.83576172 108.50052734 34.54603516 109.34521484 35.27783203 C111.8870318 37.52362993 114.38075375 39.81177301 116.86083984 42.12548828 C118.11574219 43.28177734 118.11574219 43.28177734 119.39599609 44.46142578 C125.97521102 50.74574544 130.96873604 57.49220567 135.86083984 65.12548828 C136.46025391 66.03685547 137.05966797 66.94822266 137.67724609 67.88720703 C138.06783203 68.62583984 138.45841797 69.36447266 138.86083984 70.12548828 C138.53083984 70.78548828 138.20083984 71.44548828 137.86083984 72.12548828 C136.1880615 70.33919997 134.52259541 68.54698079 132.86083984 66.75048828 C132.14541016 65.98865234 132.14541016 65.98865234 131.41552734 65.21142578 C127.86083984 61.35205078 127.86083984 61.35205078 127.86083984 59.12548828 C127.20083984 59.12548828 126.54083984 59.12548828 125.86083984 59.12548828 C124.14907727 57.50517212 122.48881842 55.82996512 120.86083984 54.12548828 C108.29066591 41.19680671 92.02942497 32.55370664 75.78222656 25.01806641 C74.51846898 24.43098919 73.25945121 23.83357971 72.00585938 23.22509766 C38.81406057 7.22611036 -2.90593687 4.16247948 -39.13916016 8.12548828 C-39.46916016 7.46548828 -39.79916016 6.80548828 -40.13916016 6.12548828 C-26.86614065 2.20823611 -13.78297809 0.80854265 0 0 Z " fill="#000000" transform="translate(327.13916015625,60.87451171875)"/>
<path d="M0 0 C0 4.67590167 -0.88002198 5.69649386 -4 9 C-4.66 9 -5.32 9 -6 9 C-6.309375 9.61875 -6.61875 10.2375 -6.9375 10.875 C-7.625 12.25 -8.3125 13.625 -9 15 C-7.98292969 14.32904297 -7.98292969 14.32904297 -6.9453125 13.64453125 C7.32716482 4.37335139 17.95437381 0.45904904 35 2 C38.61659538 2.93160893 41.76659166 4.13808877 45 6 C45 6.66 45 7.32 45 8 C45.99 8.33 46.98 8.66 48 9 C52.37851391 14.78265803 53.51946963 22.01865725 52.78125 29.09765625 C50.63494982 39.47831963 44.29179955 47.36465383 35.73046875 53.24609375 C32.55013839 55.29543454 29.3828413 57.29675123 26 59 C25.34 58.67 24.68 58.34 24 58 C24.51949219 57.47792969 25.03898438 56.95585938 25.57421875 56.41796875 C33.80686286 47.72880094 37.55159569 40.0011113 37.56640625 27.9453125 C36.8486589 24.21302627 35.81026918 22.55605075 33 20 C24.61876454 18.08886478 17.4708433 19.98375146 10.3046875 24.39453125 C8.16532169 25.88483523 6.06843525 27.41292871 4 29 C4.309375 29.598125 4.61875 30.19625 4.9375 30.8125 C7.53200172 36.15412119 7.76935064 41.1675894 7 47 C4.29876434 54.44008161 0.03183888 60.9332439 -5 67 C-4.54109375 67.65484375 -4.0821875 68.3096875 -3.609375 68.984375 C6.79350196 84.45756174 7.66250538 99.57182831 5.5625 117.796875 C2.09648377 134.17380171 -10.03764539 146.35309913 -23 156 C-23.69867188 156.52980469 -24.39734375 157.05960938 -25.1171875 157.60546875 C-29.70028011 161 -29.70028011 161 -32 161 C-30.83771251 158.25277502 -29.59703673 156.55570716 -27.5625 154.3125 C-20.43043403 145.87988083 -19.29180531 131.62292032 -20 121 C-20.89577556 113.37145975 -24.00382948 106.51792699 -28 100 C-28.99 99.34 -29.98 98.68 -31 98 C-30.690625 98.99 -30.38125 99.98 -30.0625 101 C-27.73614774 109.282474 -27.88280234 117.45759289 -28 126 C-28.66 126.33 -29.32 126.66 -30 127 C-30.64690922 125.3962669 -31.29248764 123.79199694 -31.9375 122.1875 C-32.29714844 121.29417969 -32.65679687 120.40085937 -33.02734375 119.48046875 C-33.73613486 117.6729091 -34.3860247 115.84192591 -35 114 C-36.31403276 113.29605388 -37.6520257 112.63654342 -39 112 C-39.680625 111.38125 -40.36125 110.7625 -41.0625 110.125 C-51.5414826 102.5444594 -63.64972755 103.37135158 -76 103.3125 C-78.81983514 103.2833824 -81.63951137 103.2488698 -84.45922852 103.21000671 C-86.20313256 103.18761698 -87.94713543 103.17173843 -89.69116211 103.16316223 C-93.03911265 103.13316552 -95.80200006 103.06599998 -99 102 C-99 102.66 -99 103.32 -99 104 C-97.88625 104.11730469 -96.7725 104.23460937 -95.625 104.35546875 C-90.65619444 104.97875258 -85.85808308 106.11763894 -81 107.3125 C-80.09096924 107.53252686 -79.18193848 107.75255371 -78.24536133 107.97924805 C-70.15317352 109.94401793 -62.07256009 111.95616937 -54 114 C-54 114.33 -54 114.66 -54 115 C-66.84168521 115.21757058 -79.32262387 115.24307445 -92 113 C-91.1324353 115.28431673 -91.1324353 115.28431673 -88.359375 116.078125 C-87.16828125 116.46484375 -85.9771875 116.8515625 -84.75 117.25 C-83.78114868 117.56553833 -83.78114868 117.56553833 -82.79272461 117.88745117 C-73.602376 120.83372153 -64.29473044 123.40671515 -55 126 C-55 126.33 -55 126.66 -55 127 C-70.66688662 126.17630816 -85.82396899 125.13526771 -101 121 C-101 121.66 -101 122.32 -101 123 C-100.26821533 123.1343042 -99.53643066 123.2686084 -98.7824707 123.40698242 C-96.25109757 123.94648451 -93.92067483 124.63600051 -91.48046875 125.48828125 C-90.63000977 125.78065674 -89.77955078 126.07303223 -88.90332031 126.37426758 C-88.00709961 126.68388428 -87.11087891 126.99350098 -86.1875 127.3125 C-78.14993911 130.05831596 -70.14922927 132.3363658 -61.859375 134.17578125 C-60.91578125 134.44777344 -59.9721875 134.71976563 -59 135 C-58.67 135.66 -58.34 136.32 -58 137 C-64.8094138 137.07706265 -71.61871225 137.12901688 -78.4284668 137.16479492 C-80.73742881 137.17973498 -83.04636319 137.20009442 -85.35522461 137.22631836 C-106.64759653 137.4618228 -129.91549681 137.71515433 -146.234375 121.82421875 C-155 112.30679745 -155 112.30679745 -155 107 C-155.66 107 -156.32 107 -157 107 C-157.33 114.26 -157.66 121.52 -158 129 C-172.41019884 114.58980116 -175.58719904 101.73188591 -176 82 C-174.51901457 83.9429838 -173.07761522 85.88055477 -171.74609375 87.9296875 C-167.82762774 93.75475041 -163.17110407 96.78029353 -157 100 C-156.87625 99.46632813 -156.7525 98.93265625 -156.625 98.3828125 C-153.60453412 87.4713795 -146.41024203 80.76093275 -137.22265625 74.59375 C-134.90099062 73.19054196 -134.90099062 73.19054196 -134 71 C-147.89337849 69.24372642 -161.18131729 70.26297142 -175 72 C-174.34 70.68 -173.68 69.36 -173 68 C-172.34 68 -171.68 68 -171 68 C-170.67 67.01 -170.34 66.02 -170 65 C-157.47805944 53.45269441 -141.79082474 45.3593756 -125.72436523 40.03857422 C-120.20189148 38.05914858 -117.87018562 35.89921878 -114.62084961 31.08056641 C-108.532119 23.26490708 -97.83786145 18.95543549 -89.1875 14.5 C-88.23881546 14.00892761 -88.23881546 14.00892761 -87.27096558 13.50793457 C-76.1778546 7.79805274 -65.04287187 3.29487716 -53 0 C-51.83855469 -0.35449219 -50.67710937 -0.70898438 -49.48046875 -1.07421875 C-33.91921717 -5.23266687 -15.36999784 -4.61924801 0 0 Z M-83 34 C-87.23381272 38.47049225 -87.23381272 38.47049225 -89 44 C-89.57234375 44.2784375 -90.1446875 44.556875 -90.734375 44.84375 C-92.96617566 45.98273792 -95.10870874 47.19936383 -97.25 48.5 C-98.30960937 49.13421875 -98.30960937 49.13421875 -99.390625 49.78125 C-99.92171875 50.1834375 -100.4528125 50.585625 -101 51 C-101 51.66 -101 52.32 -101 53 C-93.71441354 51.55555329 -86.83224808 49.68828216 -79.875 47.125 C-70.74617395 43.76518732 -61.43408738 41.34039928 -52 39 C-52.495 37.515 -52.495 37.515 -53 36 C-55.7056264 34.93867694 -58.27538196 34.08839241 -61.0625 33.3125 C-61.80177734 33.08755859 -62.54105469 32.86261719 -63.30273438 32.63085938 C-70.04402046 30.69045419 -77.21877015 29.13159592 -83 34 Z " fill="#000000" transform="translate(240,71)"/>
<path d="M0 0 C25.52301196 22.3868428 43.99878797 53.80179196 47 88 C48.33216995 110.31714418 45.17991335 131.94340476 35 152 C34.67 152 34.34 152 34 152 C34.14262412 150.4372038 34.28925511 148.87477304 34.4375 147.3125 C34.55931641 146.00732422 34.55931641 146.00732422 34.68359375 144.67578125 C35 142 35 142 35.50268555 139.64306641 C40.64861446 112.29410889 30.98047756 84.34322558 16.15722656 61.69140625 C13.08236951 57.1971848 9.59829772 53.07848649 6 49 C5.24589844 48.13632813 4.49179687 47.27265625 3.71484375 46.3828125 C-5.70070529 35.75600071 -15.33947131 25.75434312 -28.02734375 19.0859375 C-31.77930289 17.02050257 -35.19758812 14.24489797 -38 11 C-38 10.34 -38 9.68 -38 9 C-38.556875 8.938125 -39.11375 8.87625 -39.6875 8.8125 C-42.29218235 7.89734134 -43.4571436 6.59250708 -45.30078125 4.59765625 C-48.45077559 1.63593743 -52.11498934 -0.6886424 -55.671875 -3.1328125 C-58 -5 -58 -5 -59 -8 C-77.03597467 -18.94415939 -98.49074378 -20.38982747 -119 -20 C-118 -22 -118 -22 -115.91796875 -22.76196289 C-115.01691406 -22.9964917 -114.11585938 -23.23102051 -113.1875 -23.47265625 C-112.19363281 -23.73240234 -111.19976562 -23.99214844 -110.17578125 -24.25976562 C-108.60376953 -24.65711914 -108.60376953 -24.65711914 -107 -25.0625 C-105.98292969 -25.33126953 -104.96585937 -25.60003906 -103.91796875 -25.87695312 C-67.82506376 -35.16659042 -28.3629956 -23.54076783 0 0 Z " fill="#000000" transform="translate(424,108)"/>
<path d="M0 0 C0.97066406 0.54269531 1.94132812 1.08539063 2.94140625 1.64453125 C13.28582401 7.83311305 22.76423334 16.21601287 31 25 C31 25.66 31 26.32 31 27 C32.485 27.495 32.485 27.495 34 28 C36.93862944 31.46247208 39.43225876 35.25735133 42 39 C42.61617188 39.87398437 43.23234375 40.74796875 43.8671875 41.6484375 C53.38052236 55.72817309 58.3052022 72.08601596 59 89 C59.04125 89.99386719 59.0825 90.98773438 59.125 92.01171875 C59.73819159 122.55632466 50.81620354 150.57396073 29.5 172.8125 C18.56030997 183.21984501 18.56030997 183.21984501 13 186 C14.45928394 182.8718541 16.2354411 179.99621337 18.07177734 177.07739258 C32.93465897 153.23703479 38.49547358 123.55738263 33.875 95.73828125 C32.15822311 88.40365855 29.95037577 81.21664309 27.63256836 74.05200195 C27.01481329 72.04805315 26.48911012 70.03877164 26 68 C25.34 68 24.68 68 24 68 C22.37359266 65.08411598 20.74912272 62.16715706 19.125 59.25 C18.66480469 58.425 18.20460938 57.6 17.73046875 56.75 C17.28574219 55.95078125 16.84101563 55.1515625 16.3828125 54.328125 C15.97434082 53.5949707 15.56586914 52.86181641 15.14501953 52.10644531 C12.07549516 46.45956765 12.07549516 46.45956765 11.59765625 43.55078125 C8.69379299 31.15716876 -11.14744648 15.07662497 -21.48828125 8.49609375 C-22.31714844 8.00238281 -23.14601563 7.50867188 -24 7 C-24.98355469 6.37222656 -25.96710938 5.74445313 -26.98046875 5.09765625 C-42.96094131 -4.66298408 -60.73737685 -10.75132032 -79.375 -12.5625 C-80.57125 -12.706875 -81.7675 -12.85125 -83 -13 C-83.33 -13.66 -83.66 -14.32 -84 -15 C-55.06457762 -20.63611705 -25.50670152 -14.44917807 0 0 Z " fill="#000000" transform="translate(387,133)"/>
<path d="M0 0 C14.67482025 1.7285245 27.45767837 9.19267137 39 18 C39.84046875 18.61875 40.6809375 19.2375 41.546875 19.875 C44.46512491 22.40291075 46.75488321 25.24162201 49.0625 28.3125 C49.48337891 28.85583984 49.90425781 29.39917969 50.33789062 29.95898438 C55.44042647 36.65952369 58.5804457 42.93916204 60.6875 51.0625 C60.89955078 51.83916016 61.11160156 52.61582031 61.33007812 53.41601562 C66.5335848 72.80195057 64.64220485 91.84389816 56 110 C55.60425781 110.86753906 55.20851563 111.73507813 54.80078125 112.62890625 C50.60120496 121.09111554 44.51046689 128.09558458 38.44433594 135.26464844 C37.16447741 136.80238244 35.94093758 138.3866075 34.7265625 139.9765625 C34.15679687 140.64429688 33.58703125 141.31203125 33 142 C32.34 142 31.68 142 31 142 C30.77957031 142.55429687 30.55914062 143.10859375 30.33203125 143.6796875 C24.87173727 153.19116734 12.67979684 160.48734519 4 167 C2.49692836 168.16270665 0.99660521 169.32898166 -0.5 170.5 C-1.9998518 171.66685718 -3.49986693 172.83350444 -5 174 C-6.52947266 175.19109375 -6.52947266 175.19109375 -8.08984375 176.40625 C-12.96019893 180.18449104 -17.82396381 183.92672724 -22.9375 187.375 C-51.19210978 206.91471391 -71.86933987 233.6420035 -79.53540039 267.35449219 C-84.05132805 293.06893892 -77.37304285 316.78062609 -63 338 C-67.25755561 338 -69.07327228 335.53921038 -72 332.75 C-72.57596924 332.20641846 -73.15193848 331.66283691 -73.74536133 331.1027832 C-93.93872707 311.83752867 -108.48405926 290.39200744 -110.203125 261.59765625 C-110.63297124 229.18008548 -95.1053048 201.78442323 -73 179 C-72.10925781 178.06285156 -71.21851563 177.12570312 -70.30078125 176.16015625 C-68 174 -68 174 -66 174 C-66 173.34 -66 172.68 -66 172 C-63.64354418 170.0419489 -61.27049094 168.19888085 -58.8125 166.375 C-57.24726987 165.1967819 -55.68217167 164.01838853 -54.1171875 162.83984375 C-53.28413086 162.21577637 -52.45107422 161.59170898 -51.59277344 160.94873047 C-47.18770582 157.63787833 -42.81553061 154.28396717 -38.4375 150.9375 C-33.46580073 147.14128352 -28.49102646 143.35147747 -23.4609375 139.6328125 C-16.75749686 134.67577625 -10.26166351 129.69838594 -4.15625 124 C-2.15925244 122.14771241 -0.09986914 120.42072532 2 118.6875 C15.2990137 106.96724245 28.74027853 87.73535627 30.19287109 69.59082031 C30.90050735 47.52114645 27.31710236 28.81145381 12 12 C12 11.34 12 10.68 12 10 C11.34 10 10.68 10 10 10 C10 9.34 10 8.68 10 8 C9.34 8 8.68 8 8 8 C8 7.34 8 6.68 8 6 C7.4225 5.7525 6.845 5.505 6.25 5.25 C3.6997003 3.83316683 1.98214299 2.12372463 0 0 Z " fill="#000000" transform="translate(323,130)"/>
<path d="M0 0 C17.08570954 3.90334847 34.61593804 12.10711533 44.94140625 26.75390625 C53.80252429 40.94279464 54.6411694 55.1083518 51.09375 71.203125 C47.08089787 85.13345454 37.90752386 98.45591663 27 108 C26.34 108 25.68 108 25 108 C25 108.66 25 109.32 25 110 C24.34 110 23.68 110 23 110 C23 110.66 23 111.32 23 112 C21.26953125 113.41015625 21.26953125 113.41015625 18.8125 115.0625 C17.91015625 115.67609375 17.0078125 116.2896875 16.078125 116.921875 C15.06234375 117.60765625 14.0465625 118.2934375 13 119 C10.68349926 120.59841211 8.37348118 122.20612202 6.0625 123.8125 C3.05411425 125.89578024 0.04471921 127.9701872 -3 130 C-3.99 129.67 -4.98 129.34 -6 129 C-5.16597656 128.33355469 -4.33195312 127.66710937 -3.47265625 126.98046875 C16.40164233 110.82038335 31.41508523 87.7284625 34.23925781 61.80371094 C35.4171814 46.64863815 32.04985457 32.41828679 23 20 C22.51144531 19.31808594 22.02289063 18.63617188 21.51953125 17.93359375 C16.29060309 11.33610661 8.04447198 4.68149066 0 2 C0 1.34 0 0.68 0 0 Z " fill="#000000" transform="translate(290,136)"/>
<path d="M0 0 C10.50948947 4.79421655 18.85891609 15.43148353 23.23046875 25.96484375 C27.72686714 41.01616793 23.20883981 55.80434361 16.19848633 69.34326172 C12.97605305 75.29972479 9.25846939 80.73117319 5 86 C4.54093262 86.56976563 4.08186523 87.13953125 3.60888672 87.7265625 C2.12577797 89.55671967 0.62934154 91.37476475 -0.875 93.1875 C-1.35171143 93.7652417 -1.82842285 94.3429834 -2.31958008 94.93823242 C-3.50089779 96.33202193 -4.74555727 97.6716423 -6 99 C-6.66 99 -7.32 99 -8 99 C-8.25523437 99.58136719 -8.51046875 100.16273438 -8.7734375 100.76171875 C-10.12502724 103.22815481 -11.61692694 104.84842854 -13.625 106.8125 C-14.57246094 107.75029297 -14.57246094 107.75029297 -15.5390625 108.70703125 C-17.58702321 110.61521051 -19.66485187 112.46150738 -21.77734375 114.296875 C-25.92874541 117.91004261 -29.94030296 121.65543158 -33.9375 125.4375 C-43.20225905 134.15024728 -43.20225905 134.15024728 -47.375 137.9375 C-48.04273438 138.54464844 -48.71046875 139.15179688 -49.3984375 139.77734375 C-51 141 -51 141 -53 141 C-53 141.66 -53 142.32 -53 143 C-53.66 143 -54.32 143 -55 143 C-55.66 144.32 -56.32 145.64 -57 147 C-57.66 147 -58.32 147 -59 147 C-59.2371875 147.56074219 -59.474375 148.12148438 -59.71875 148.69921875 C-61.29086374 151.52231324 -63.24861516 153.49343112 -65.5 155.8125 C-86.55327933 178.4091733 -94.87786183 206.45931755 -94.09765625 236.86132812 C-93.80065361 243.36568587 -92.69988559 249.50642554 -90.3125 255.5625 C-89 259 -89 259 -90 262 C-91.93638625 259.11805371 -93.86563336 256.2317148 -95.78125 253.3359375 C-97.11325423 251.32300353 -98.46432849 249.33301967 -99.84375 247.3515625 C-113.71215661 226.86414364 -119.12406758 201.28198301 -114.875 176.9375 C-110.13397511 153.2002231 -97.20907305 132.54908932 -77 119 C-72.54232164 116.30406735 -67.90207092 113.95164938 -63.25323486 111.60617065 C-52.17591533 106.00957957 -41.55882738 100.22216156 -31.5703125 92.80859375 C-29 91 -29 91 -27 91 C-27 90.34 -27 89.68 -27 89 C-25.56640625 87.58984375 -25.56640625 87.58984375 -23.5625 85.9375 C-15.26939116 79.31188514 -15.26939116 79.31188514 -9 71 C-8.34 71 -7.68 71 -7 71 C-6.62875 69.9171875 -6.62875 69.9171875 -6.25 68.8125 C-5 66 -5 66 -3.1875 63.8125 C7.05049071 50.64936908 9.50142093 34.43676706 7.69140625 18.23828125 C6.66639278 13.04064656 4.53251488 8.61986113 2 4 C1.32867543 2.66900581 0.66076049 1.3362701 0 0 Z " fill="#000000" transform="translate(288,153)"/>
<path d="M0 0 C2 1 2 1 3.0703125 4.1484375 C7.30846072 20.31126476 8.62749389 37.06466627 0.78515625 52.37109375 C-13.3176469 75.30347801 -38.44914187 88.91882237 -63 98 C-61.89950909 94.69852727 -61.51475499 94.40084 -58.74609375 92.609375 C-58.06409912 92.1546582 -57.38210449 91.69994141 -56.67944336 91.23144531 C-55.93960205 90.74256836 -55.19976074 90.25369141 -54.4375 89.75 C-45.70238502 83.7936072 -38.14426702 76.99178295 -30.62695312 69.58300781 C-29.31953621 68.31090528 -27.97056304 67.08158075 -26.609375 65.8671875 C-12.61754596 53.1835376 -1.511354 31.68797171 -0.375 12.875 C-0.30023438 11.71742188 -0.22546875 10.55984375 -0.1484375 9.3671875 C-0.01053678 6.23901851 0.0285469 3.13064348 0 0 Z " fill="#000000" transform="translate(273,166)"/>
<path d="M0 0 C0.9075 0.804375 1.815 1.60875 2.75 2.4375 C17.386611 14.86536689 30.42281007 20.30520334 49 24 C47.14893866 30.14484745 44.47368388 33.11528848 39.375 37 C35.6526215 41.70195179 35.04672352 47.18770598 34 53 C28.78846975 51.43800074 25.97091172 49.59272965 22 46 C22.33 48.97 22.66 51.94 23 55 C11.4182109 47.6572971 2.36952569 38.63405324 -1.53710938 25.14550781 C-2.36615712 21.30285403 -2.18454652 17.41631611 -2.1875 13.5 C-2.19974609 12.64535156 -2.21199219 11.79070312 -2.22460938 10.91015625 C-2.22654297 10.08386719 -2.22847656 9.25757813 -2.23046875 8.40625 C-2.23663208 7.28186523 -2.23663208 7.28186523 -2.24291992 6.13476562 C-1.96836704 3.72201143 -1.19750325 2.09540822 0 0 Z " fill="#000000" transform="translate(91,200)"/>
<path d="M0 0 C2 1 2 1 3.21875 4.55078125 C11.6451156 34.77931375 11.34917961 66.19741609 -3.57421875 94.51953125 C-8.70235785 103.44108832 -14.75195106 111.351355 -21.484375 119.08984375 C-23.06721858 120.92092832 -24.61498681 122.78353875 -26.109375 124.6875 C-27.80352857 126.75968783 -29.44151242 128.36966482 -31.5 130.0625 C-35.92047801 133.81573604 -39.94595359 137.9124719 -43.96289062 142.08813477 C-45.27253558 143.42830111 -46.63258224 144.71883474 -48 146 C-48.66 146 -49.32 146 -50 146 C-50 146.66 -50 147.32 -50 148 C-51.5390625 149.55078125 -51.5390625 149.55078125 -53.625 151.3125 C-54.35847656 151.93898438 -55.09195313 152.56546875 -55.84765625 153.2109375 C-57.56835651 154.64121104 -59.31181086 156.04409436 -61.0625 157.4375 C-65.41751955 161.23655961 -69.25188562 165.51810922 -72.58203125 170.24609375 C-73.04996094 170.82488281 -73.51789063 171.40367187 -74 172 C-74.66 172 -75.32 172 -76 172 C-76.26039063 172.71800781 -76.52078125 173.43601562 -76.7890625 174.17578125 C-78.05111033 177.11920249 -79.58224581 179.53751182 -81.375 182.1875 C-86.43487146 189.98813516 -90.14985793 198.02557326 -90.09765625 207.421875 C-90.09282227 208.95908203 -90.09282227 208.95908203 -90.08789062 210.52734375 C-90.07951172 211.59082031 -90.07113281 212.65429688 -90.0625 213.75 C-90.05798828 214.82894531 -90.05347656 215.90789062 -90.04882812 217.01953125 C-90.03705727 219.67974383 -90.02061399 222.33984365 -90 225 C-93.53786446 221.76099624 -96.07849795 218.09021741 -98.625 214.0625 C-99.21667969 213.15081055 -99.21667969 213.15081055 -99.8203125 212.22070312 C-108.12570666 199.21546598 -108.99559181 182.2804711 -106.34765625 167.3125 C-105.4261542 164.08526534 -104.32237144 161.08422538 -103 158 C-102.51402344 156.86304688 -102.02804687 155.72609375 -101.52734375 154.5546875 C-97.43507294 145.75098434 -92.15319941 138.45317111 -86 131 C-86.66 130.67 -87.32 130.34 -88 130 C-86.40423801 128.49106184 -84.79810089 126.99308924 -83.1875 125.5 C-82.29417969 124.6646875 -81.40085937 123.829375 -80.48046875 122.96875 C-78 121 -78 121 -75 121 C-74.505 119.515 -74.505 119.515 -74 118 C-72.19970039 116.63425547 -70.33188267 115.35692983 -68.4375 114.125 C-39.15185245 94.37780444 -7.47547834 66.10162282 -0.40625 29.96484375 C0.18831971 24.16207204 0.10383685 18.39099595 0.0625 12.5625 C0.05798828 11.35400391 0.05347656 10.14550781 0.04882812 8.90039062 C0.03710145 5.93354211 0.02068896 2.9667973 0 0 Z " fill="#000000" transform="translate(393,204)"/>
<path d="M0 0 C0 0.99 0 1.98 0 3 C-0.99 3.33 -1.98 3.66 -3 4 C-4.0415868 5.81095541 -4.0415868 5.81095541 -5 8 C-6.09678897 9.62998865 -7.20177561 11.25447528 -8.3125 12.875 C-16.59783264 25.82083225 -19.39865698 40.33637162 -19.3125 55.5 C-19.30758545 56.54027344 -19.3026709 57.58054687 -19.29760742 58.65234375 C-19.00568283 78.22177085 -14.63502295 96.42648685 -6 114 C-5.50306641 115.15435547 -5.50306641 115.15435547 -4.99609375 116.33203125 C-1.93988136 123.13238575 2.42093358 128.79793473 6.98657227 134.64331055 C7.50276123 135.30758057 8.0189502 135.97185059 8.55078125 136.65625 C9.02169189 137.25244141 9.49260254 137.84863281 9.9777832 138.46289062 C11 140 11 140 11 142 C11.66 142 12.32 142 13 142 C16 145.46153846 16 145.46153846 16 148 C16.66 148 17.32 148 18 148 C19.7143618 149.95927063 21.38405168 151.95880212 23 154 C18.7753126 154 16.08058075 151.82824166 12.625 149.625 C11.91400146 149.17527832 11.20300293 148.72555664 10.47045898 148.26220703 C0.47055487 141.84287411 -9.80646825 134.638142 -18 126 C-18 125.34 -18 124.68 -18 124 C-19.485 123.505 -19.485 123.505 -21 123 C-21 122.34 -21 121.68 -21 121 C-22.485 120.505 -22.485 120.505 -24 120 C-25.65434833 118.18141131 -27.14528703 116.39069821 -28.625 114.4375 C-29.06013916 113.86394775 -29.49527832 113.29039551 -29.94360352 112.69946289 C-43.80516633 93.95738602 -48.21043704 76.45582876 -45.56640625 53.18359375 C-41.79959056 34.11555158 -29.09604593 18.19888444 -13.2890625 7.40625 C-4.17370476 1.39123492 -4.17370476 1.39123492 0 0 Z " fill="#000000" transform="translate(178,292)"/>
<path d="M0 0 C0.66 0.66 1.32 1.32 2 2 C0.68 3.65 -0.64 5.3 -2 7 C-5.19366028 6.53263508 -8.11907476 5.96030841 -11.1875 4.9375 C-18.03184689 3.25446388 -25.11688454 3.51175882 -32 5 C-32.85387105 8.30567489 -32.85387105 8.30567489 -33 12 C-30.29372536 15.4916438 -27.82332184 16.66695674 -23.60546875 17.74609375 C-22.56712891 18.02646484 -21.52878906 18.30683594 -20.45898438 18.59570312 C-18.28992838 19.15383037 -16.12065959 19.71113137 -13.95117188 20.26757812 C-6.4437112 22.29649607 -0.49174864 24.26237704 4 31 C4.73994273 35.46811572 4.94463954 39.96567784 3.0078125 44.13671875 C-0.87380321 49.19159119 -5.81956012 51.78828963 -12 53 C-22.99502809 54.05251945 -34.00008263 54.19919803 -44 49 C-44.75152344 48.62617187 -45.50304687 48.25234375 -46.27734375 47.8671875 C-47.13005859 47.43792969 -47.13005859 47.43792969 -48 47 C-46.7251791 44.15616877 -45.54862922 41.86245982 -43 40 C-40.31830911 40.19154935 -38.46162476 41.27491502 -36.0625 42.5 C-28.27641375 45.88234285 -19.47056481 45.82749231 -11.609375 42.88671875 C-9.81054571 42.0940726 -9.81054571 42.0940726 -9 40 C-8.49989476 37.04230823 -8.49989476 37.04230823 -9 34 C-14.17211604 29.7612807 -21.55191522 28.8915772 -27.89648438 27.33789062 C-34.33860627 25.68259286 -38.96567772 23.92969048 -43.8125 19.25 C-46.33865444 14.46360212 -46.35585612 10.39970075 -45.0625 5.3125 C-41.5790071 -0.28220073 -36.81448399 -2.76709598 -30.5 -4.375 C-20.52926939 -5.97771404 -8.67642315 -5.60793204 0 0 Z " fill="#000000" transform="translate(509,494)"/>
<path d="M0 0 C0.71003174 0.00008057 1.42006348 0.00016113 2.15161133 0.00024414 C4.27837038 -0.00191257 6.40458495 -0.01997482 8.53125 -0.0390625 C29.02312869 -0.12539262 29.02312869 -0.12539262 37.38085938 6.18554688 C39.5122639 9.47953568 40.54794134 11.68658296 40.10742188 15.63867188 C39.62508156 17.86163161 39.06443342 20.01679756 38.38085938 22.18554688 C37.72085938 22.18554688 37.06085937 22.18554688 36.38085938 22.18554688 C36.38085938 22.84554687 36.38085938 23.50554688 36.38085938 24.18554688 C34.73085938 24.84554687 33.08085938 25.50554688 31.38085938 26.18554688 C31.38085938 26.84554687 31.38085938 27.50554688 31.38085938 28.18554688 C32.26773438 28.41242187 33.15460937 28.63929688 34.06835938 28.87304688 C37.99433952 30.42862391 39.82286666 31.82361359 42.38085938 35.18554688 C43.8176517 39.38133305 43.5301444 42.59835913 42.44335938 46.87304688 C39.29225179 51.93391664 34.96515638 54.32411454 29.38085938 56.18554688 C28.05177285 56.30261981 26.71804257 56.37141982 25.38427734 56.40673828 C24.58690155 56.42991119 23.78952576 56.45308411 22.96798706 56.47695923 C22.1116568 56.49680878 21.25532654 56.51665833 20.37304688 56.53710938 C19.49182159 56.56026215 18.61059631 56.58341492 17.70266724 56.60726929 C15.84171168 56.65486032 13.98069473 56.7001002 12.11962891 56.74316406 C9.25985687 56.81045282 6.40049514 56.88814521 3.54101562 56.96679688 C1.73504152 57.01169452 -0.07094778 57.05598626 -1.87695312 57.09960938 C-2.73733185 57.12350739 -3.59771057 57.1474054 -4.48416138 57.17202759 C-6.52869465 57.21562466 -8.57424602 57.20611603 -10.61914062 57.18554688 C-12.31209407 55.49259343 -11.74663791 53.35658204 -11.74853516 51.0390625 C-11.7532634 49.3923053 -11.7532634 49.3923053 -11.75808716 47.71228027 C-11.75606293 46.51752075 -11.7540387 45.32276123 -11.75195312 44.09179688 C-11.75290985 42.87480103 -11.75386658 41.65780518 -11.75485229 40.40393066 C-11.75553435 37.82478789 -11.75367834 35.24564341 -11.74951172 32.66650391 C-11.74416385 28.70276052 -11.74945592 24.73913046 -11.75585938 20.77539062 C-11.7551986 18.27669246 -11.75391744 15.77799436 -11.75195312 13.27929688 C-11.75397736 12.08453735 -11.75600159 10.88977783 -11.75808716 9.65881348 C-11.754935 8.56097534 -11.75178284 7.46313721 -11.74853516 6.33203125 C-11.74773956 5.36019897 -11.74694397 4.3883667 -11.74612427 3.38708496 C-11.43083923 -2.07906805 -4.23012113 0.01521571 0 0 Z M0.38085938 7.18554688 C-1.14405192 10.23536946 -0.76275497 13.40677227 -0.74414062 16.74804688 C-0.74800781 17.44607422 -0.751875 18.14410156 -0.75585938 18.86328125 C-1.05836578 22.31303586 -1.05836578 22.31303586 0.38085938 25.18554688 C3.4134114 25.46531824 6.46194875 25.41742836 9.50585938 25.43554688 C10.34890625 25.45617187 11.19195312 25.47679687 12.06054688 25.49804688 C17.61494375 25.53254623 21.46861535 24.82563598 26.38085938 22.18554688 C28.82302644 19.10629274 28.78861905 16.01848779 28.38085938 12.18554688 C26.72396914 9.28598896 25.04549011 9.084789 21.81835938 8.11523438 C17.30114674 7.02881615 13.00534144 6.95635577 8.38085938 7.06054688 C7.60613281 7.06957031 6.83140625 7.07859375 6.03320312 7.08789062 C4.14895095 7.111153 2.26486106 7.14701048 0.38085938 7.18554688 Z M0.38085938 31.18554688 C0.38085938 37.12554688 0.38085938 43.06554687 0.38085938 49.18554688 C3.7146944 49.26708088 7.04650172 49.32630354 10.38085938 49.37304688 C11.31542969 49.39818359 12.25 49.42332031 13.21289062 49.44921875 C19.32326668 49.5133136 23.84172576 48.83330403 29.38085938 46.18554688 C30.98704682 42.97317199 30.99325366 39.66036839 30.38085938 36.18554688 C27.32366332 32.77895698 24.79346849 31.87131511 20.38085938 31.18554688 C18.7612444 31.10904906 17.13896493 31.07743006 15.51757812 31.08789062 C14.63134766 31.09111328 13.74511719 31.09433594 12.83203125 31.09765625 C11.46401367 31.11022461 11.46401367 31.11022461 10.06835938 31.12304688 C9.13701172 31.12755859 8.20566406 31.13207031 7.24609375 31.13671875 C4.9576545 31.14845434 2.66924852 31.16638827 0.38085938 31.18554688 Z " fill="#000000" transform="translate(12.619140625,489.814453125)"/>
<path d="M0 0 C2.12887235 -0.00216422 4.25720726 -0.02025772 6.38598633 -0.03930664 C17.93395139 -0.0881017 26.37187888 0.52046226 35.47387695 8.18530273 C38.03640936 12.91613179 37.87587302 17.92132937 37.09887695 23.18530273 C35.36432727 26.83949125 33.61033731 28.9125388 30.16137695 30.99780273 C29.1578418 31.6262207 29.1578418 31.6262207 28.1340332 32.26733398 C26.09887695 33.18530273 26.09887695 33.18530273 22.09887695 33.18530273 C25.5039364 38.64000961 29.58381546 43.06092485 34.02856445 47.68139648 C38.09887695 51.98229319 38.09887695 51.98229319 38.09887695 54.18530273 C38.75887695 54.18530273 39.41887695 54.18530273 40.09887695 54.18530273 C39.76887695 55.17530273 39.43887695 56.16530273 39.09887695 57.18530273 C34.41790572 57.79053469 30.61115718 57.63450222 26.09887695 56.18530273 C20.8912333 52.07436814 16.99811917 46.49790664 13.09887695 41.18530273 C12.48270508 40.40799805 11.8665332 39.63069336 11.23168945 38.82983398 C10.09887695 37.18530273 10.09887695 37.18530273 10.09887695 35.18530273 C8.28645644 35.15842994 6.47392462 35.13896558 4.66137695 35.12280273 C3.65204102 35.11120117 2.64270508 35.09959961 1.6027832 35.08764648 C-0.84133372 34.89917598 -0.84133372 34.89917598 -1.90112305 36.18530273 C-1.97574074 37.66273302 -1.98439139 39.14363515 -1.96362305 40.62280273 C-1.95588867 41.51741211 -1.9481543 42.41202148 -1.94018555 43.33374023 C-1.92729492 44.27475586 -1.9144043 45.21577148 -1.90112305 46.18530273 C-1.87572428 48.03941248 -1.85465372 49.89358833 -1.83862305 51.74780273 C-1.82702148 52.5740918 -1.81541992 53.40038086 -1.8034668 54.25170898 C-1.90112305 56.18530273 -1.90112305 56.18530273 -2.90112305 57.18530273 C-4.35671675 57.28388876 -5.81720224 57.31502416 -7.27612305 57.31030273 C-8.06760742 57.31288086 -8.8590918 57.31545898 -9.67456055 57.31811523 C-11.90112305 57.18530273 -11.90112305 57.18530273 -14.90112305 56.18530273 C-14.90112305 38.03530273 -14.90112305 19.88530273 -14.90112305 1.18530273 C-10.5849906 -0.97276349 -4.79518957 -0.00054571 0 0 Z M-1.90112305 8.18530273 C-2.83080645 11.62291561 -3.03497411 14.67639786 -3.02612305 18.24780273 C-3.02870117 19.2906543 -3.0312793 20.33350586 -3.03393555 21.40795898 C-3.02249461 24.27210902 -3.02249461 24.27210902 -1.90112305 27.18530273 C0.95363002 27.26686711 3.8060126 27.32606645 6.66137695 27.37280273 C7.46124023 27.39793945 8.26110352 27.42307617 9.08520508 27.44897461 C14.54404497 27.51581755 18.26369963 26.76658229 23.09887695 24.18530273 C24.95788348 21.84133798 25.09425654 20.21632554 25.53637695 17.24780273 C24.94723438 13.12380471 23.27506649 11.77057329 20.09887695 9.18530273 C17.2747593 8.24393018 15.56969664 8.06804891 12.6496582 8.08764648 C11.80209961 8.09086914 10.95454102 8.0940918 10.08129883 8.09741211 C9.20022461 8.10579102 8.31915039 8.11416992 7.41137695 8.12280273 C6.07236328 8.12957031 6.07236328 8.12957031 4.70629883 8.13647461 C2.50375709 8.14825291 0.30135096 8.16470109 -1.90112305 8.18530273 Z " fill="#000000" transform="translate(82.901123046875,489.814697265625)"/>
<path d="M0 0 C5.67958436 5.13969991 9.56778633 10.52658849 10.3125 18.234375 C10.62229822 27.25724817 9.54782235 33.78096802 3.6875 40.75 C-7.27345184 49.92661084 -16.71619484 52.06973873 -30.93115234 51.22021484 C-35.40980225 50.74349284 -39.12492564 49.21432821 -43 47 C-44.60875 46.13375 -44.60875 46.13375 -46.25 45.25 C-52.72120203 39.95538016 -56.49378337 33.8436939 -57.37109375 25.44921875 C-57.53880627 15.94879765 -56.62038494 10.13262273 -50.23828125 3.04296875 C-37.39291025 -9.33340291 -14.4315732 -10.54410145 0 0 Z M-39 6 C-39 6.66 -39 7.32 -39 8 C-39.66 8 -40.32 8 -41 8 C-44.87444455 15.16080376 -46.16288319 21.1544354 -44.5625 29.19921875 C-42.68148611 35.37129558 -38.55005482 38.95189145 -33.0703125 42.11328125 C-26.81957541 44.79048374 -20.27825232 44.44786884 -14.0390625 42.01171875 C-7.79840136 38.91529876 -4.69999275 34.63634386 -2.3125 28.125 C-1.22554442 20.73370205 -1.97185758 14.41717369 -6 8 C-11.2380101 3.16265858 -16.21844186 1.29088909 -23.25 0.75 C-29.083391 1.13889273 -34.13405589 2.75603726 -39 6 Z " fill="#000000" transform="translate(188,496)"/>
<path d="M0 0 C1.03777588 -0.00315216 2.07555176 -0.00630432 3.14477539 -0.009552 C4.83848267 -0.00651566 4.83848267 -0.00651566 6.56640625 -0.00341797 C7.71681396 -0.00437469 8.86722168 -0.00533142 10.05249023 -0.00631714 C12.49039769 -0.00699916 14.92830695 -0.00514337 17.36621094 -0.00097656 C21.11267143 0.00437136 24.85901202 -0.00092086 28.60546875 -0.00732422 C30.96744818 -0.00666344 33.32942754 -0.00538229 35.69140625 -0.00341797 C36.82054443 -0.0054422 37.94968262 -0.00746643 39.11303711 -0.009552 C40.15081299 -0.00639984 41.18858887 -0.00324768 42.2578125 0 C43.1763501 0.00079559 44.0948877 0.00159119 45.04125977 0.00241089 C47.12890625 0.12939453 47.12890625 0.12939453 48.12890625 1.12939453 C48.12890625 3.43939453 48.12890625 5.74939453 48.12890625 8.12939453 C41.19890625 8.12939453 34.26890625 8.12939453 27.12890625 8.12939453 C27.14050781 11.58279297 27.15210938 15.03619141 27.1640625 18.59423828 C27.17185194 21.92358305 27.17792934 25.25292682 27.18383789 28.58227539 C27.18887958 30.90356904 27.19571276 33.2248595 27.2043457 35.54614258 C27.2164185 38.87468248 27.22213604 42.20318055 27.2265625 45.53173828 C27.23172379 46.5765184 27.23688507 47.62129852 27.24220276 48.69773865 C27.24227829 49.65865921 27.24235382 50.61957977 27.24243164 51.60961914 C27.24465225 52.46011337 27.24687286 53.3106076 27.24916077 54.18687439 C27.12890625 56.12939453 27.12890625 56.12939453 26.12890625 57.12939453 C24.46461574 57.2276339 22.79608694 57.25913084 21.12890625 57.25439453 C19.76765625 57.25826172 19.76765625 57.25826172 18.37890625 57.26220703 C16.12890625 57.12939453 16.12890625 57.12939453 15.12890625 56.12939453 C15.03578736 54.62520714 15.01144597 53.11668097 15.01538086 51.60961914 C15.01545639 50.64869858 15.01553192 49.68777802 15.01560974 48.69773865 C15.02077103 47.65295853 15.02593231 46.60817841 15.03125 45.53173828 C15.03266495 44.46774307 15.0340799 43.40374786 15.03553772 42.30751038 C15.04115561 38.8939437 15.05371114 35.48044153 15.06640625 32.06689453 C15.07141894 29.75895277 15.07598225 27.45100998 15.08007812 25.14306641 C15.09028192 19.47179732 15.10985382 13.80066853 15.12890625 8.12939453 C8.19890625 8.12939453 1.26890625 8.12939453 -5.87109375 8.12939453 C-5.87109375 0.00508526 -5.87109375 0.00508526 0 0 Z " fill="#000000" transform="translate(207.87109375,489.87060546875)"/>
<path d="M0 0 C2.73886155 0.02559684 4.40257532 0.30085844 7.0625 1.1875 C7.0625 8.7775 7.0625 16.3675 7.0625 24.1875 C17.6225 23.8575 28.1825 23.5275 39.0625 23.1875 C39.3925 15.9275 39.7225 8.6675 40.0625 1.1875 C45.0625 0.1875 45.0625 0.1875 52.0625 1.1875 C52.0625 19.3375 52.0625 37.4875 52.0625 56.1875 C48.1025 56.1875 44.1425 56.1875 40.0625 56.1875 C40.0625 48.2675 40.0625 40.3475 40.0625 32.1875 C29.5025 32.1875 18.9425 32.1875 8.0625 32.1875 C7.77322194 40.04070744 7.77322194 40.04070744 7.49438477 47.89428711 C7.45627686 48.8663208 7.41816895 49.83835449 7.37890625 50.83984375 C7.32391968 52.34019165 7.32391968 52.34019165 7.26782227 53.87084961 C7.0625 56.1875 7.0625 56.1875 6.0625 57.1875 C4.20962498 57.25976502 2.35416122 57.2713122 0.5 57.25 C-0.51191406 57.24097656 -1.52382813 57.23195313 -2.56640625 57.22265625 C-3.74009766 57.20525391 -3.74009766 57.20525391 -4.9375 57.1875 C-6.19434394 54.67381211 -6.07124676 52.9400626 -6.08276367 50.12695312 C-6.08914352 49.07245972 -6.09552338 48.01796631 -6.10209656 46.93151855 C-6.10320938 45.78880493 -6.1043222 44.64609131 -6.10546875 43.46875 C-6.10879715 42.29993286 -6.11212555 41.13111572 -6.11555481 39.92687988 C-6.12062445 37.45207107 -6.12296312 34.97725541 -6.12280273 32.50244141 C-6.12499088 28.70333691 -6.14315104 24.90452188 -6.16210938 21.10546875 C-6.16504287 18.70573016 -6.16702796 16.30599019 -6.16796875 13.90625 C-6.17515427 12.76353638 -6.18233978 11.62082275 -6.18974304 10.44348145 C-6.18666641 9.38898804 -6.18358978 8.33449463 -6.18041992 7.24804688 C-6.18184494 6.3169812 -6.18326996 5.38591553 -6.18473816 4.42663574 C-5.71572554 0.17897863 -4.05173164 0.1929396 0 0 Z " fill="#000000" transform="translate(271.9375,489.8125)"/>
<path d="M0 0 C0.87753433 -0.00315216 1.75506866 -0.00630432 2.65919495 -0.009552 C4.08267494 -0.00651566 4.08267494 -0.00651566 5.53491211 -0.00341797 C6.50633652 -0.00437469 7.47776093 -0.00533142 8.47862244 -0.00631714 C10.53392603 -0.0069983 12.58923178 -0.00514846 14.64453125 -0.00097656 C17.80270175 0.00437833 20.9607304 -0.00092669 24.11889648 -0.00732422 C26.11173534 -0.00666354 28.10457411 -0.00538259 30.09741211 -0.00341797 C31.048423 -0.0054422 31.9994339 -0.00746643 32.97926331 -0.009552 C33.85364548 -0.00639984 34.72802765 -0.00324768 35.62890625 0 C36.4023085 0.00079559 37.17571075 0.00159119 37.97254944 0.00241089 C39.74975586 0.12939453 39.74975586 0.12939453 40.74975586 1.12939453 C40.87475586 4.12939453 40.87475586 4.12939453 40.74975586 7.12939453 C38.79877501 9.08037538 35.10300657 8.38354561 32.43334961 8.44580078 C31.70229507 8.46658188 30.97124054 8.48736298 30.21803284 8.5087738 C27.8745393 8.57434477 25.53093047 8.63318885 23.18725586 8.69189453 C21.60195731 8.73507261 20.01667057 8.77868666 18.43139648 8.82275391 C14.53763288 8.93085735 10.64378628 9.02987336 6.74975586 9.12939453 C6.41975586 14.07939453 6.08975586 19.02939453 5.74975586 24.12939453 C15.31975586 24.12939453 24.88975586 24.12939453 34.74975586 24.12939453 C34.74975586 26.43939453 34.74975586 28.74939453 34.74975586 31.12939453 C31.98358023 32.51248235 29.73957586 32.24149649 26.64819336 32.22705078 C24.83061523 32.2222168 24.83061523 32.2222168 22.97631836 32.21728516 C21.70530273 32.20890625 20.43428711 32.20052734 19.12475586 32.19189453 C17.84600586 32.18738281 16.56725586 32.18287109 15.24975586 32.17822266 C12.08306941 32.16640666 8.9164069 32.14847074 5.74975586 32.12939453 C6.07975586 37.40939453 6.40975586 42.68939453 6.74975586 48.12939453 C9.1925293 48.11779297 11.63530273 48.10619141 14.15209961 48.09423828 C16.50846222 48.08644769 18.86482341 48.08037094 21.22119141 48.07446289 C22.8634505 48.06942279 24.50570509 48.06259075 26.14794922 48.05395508 C28.50351065 48.04187528 30.85901295 48.03616315 33.21459961 48.03173828 C33.95314682 48.026577 34.69169403 48.02141571 35.45262146 48.01609802 C37.21873674 48.01590203 38.98472732 48.06744734 40.74975586 48.12939453 C41.07975586 48.45939453 41.40975586 48.78939453 41.74975586 49.12939453 C41.46245531 51.46884189 41.13038806 53.80330883 40.74975586 56.12939453 C36.04914421 57.0546322 31.49280316 57.27570855 26.71850586 57.26220703 C25.58729309 57.26364212 25.58729309 57.26364212 24.43322754 57.2651062 C22.84651607 57.26578351 21.25980177 57.2639607 19.6730957 57.25976562 C17.25717897 57.25441098 14.84144812 57.25972588 12.42553711 57.26611328 C10.87735962 57.26545242 9.32918224 57.26417109 7.78100586 57.26220703 C7.06521362 57.26423126 6.34942139 57.26625549 5.61193848 57.26834106 C1.46705125 57.24915291 -2.1049435 56.82027797 -6.25024414 56.12939453 C-6.25024414 37.97939453 -6.25024414 19.82939453 -6.25024414 1.12939453 C-3.92806735 -0.03169386 -2.58462883 0.00265606 0 0 Z " fill="#000000" transform="translate(346.250244140625,489.87060546875)"/>
<path d="M0 0 C0.68433105 0.00008057 1.36866211 0.00016113 2.07373047 0.00024414 C4.11708514 -0.00190777 6.15986854 -0.01995505 8.203125 -0.0390625 C29.50023705 -0.07041252 29.50023705 -0.07041252 37.78515625 6.18554688 C40.57383883 9.52200639 41.68317902 12.36972907 42.22265625 16.68554688 C41.56110118 21.9779874 40.26110605 25.7852868 36.34765625 29.49804688 C32.38152706 32.10988805 30.64484421 33.18554688 25.78515625 33.18554688 C28.70344019 38.71659045 33.00971944 42.82111979 37.31054688 47.27734375 C37.88353516 47.87998047 38.45652344 48.48261719 39.046875 49.10351562 C39.57240967 49.6477417 40.09794434 50.19196777 40.6394043 50.75268555 C41.78515625 52.18554688 41.78515625 52.18554688 41.78515625 54.18554688 C42.44515625 54.18554688 43.10515625 54.18554688 43.78515625 54.18554688 C43.78515625 54.84554687 43.78515625 55.50554688 43.78515625 56.18554688 C30.60822013 57.55920431 30.60822013 57.55920431 26.265625 54.28710938 C23.7647665 51.03336084 22.08289436 48.07876119 20.78515625 44.18554688 C20.12515625 44.18554688 19.46515625 44.18554688 18.78515625 44.18554688 C17.94048166 42.89351849 17.1342857 41.57621351 16.34765625 40.24804688 C14.32691016 37.39078245 13.37076173 36.34101023 9.9453125 35.43164062 C7.23292495 35.21171731 4.506445 35.18554688 1.78515625 35.18554688 C1.78515625 42.11554687 1.78515625 49.04554688 1.78515625 56.18554688 C-2.5285202 57.26396599 -7.08682787 58.24955481 -11.21484375 56.18554688 C-11.24010938 48.37101936 -11.2576748 40.55650229 -11.26977539 32.74194336 C-11.27481758 30.08113206 -11.28165111 27.42032356 -11.2902832 24.75952148 C-11.30235384 20.94449172 -11.30807304 17.12949844 -11.3125 13.31445312 C-11.31766129 12.11655655 -11.32282257 10.91865997 -11.32814026 9.6844635 C-11.32821579 8.58339767 -11.32829132 7.48233185 -11.32836914 6.34790039 C-11.33058975 5.37305191 -11.33281036 4.39820343 -11.33509827 3.39381409 C-11.04027645 -2.02008107 -4.13759659 0.01845311 0 0 Z M1.78515625 8.18554688 C0.92932677 12.17828463 0.65089978 15.84418605 0.66015625 19.93554688 C0.65757812 21.08539063 0.655 22.23523438 0.65234375 23.41992188 C0.47015461 26.09467018 0.47015461 26.09467018 1.78515625 27.18554688 C5.19363713 27.46548682 8.61655071 27.41738695 12.03515625 27.43554688 C12.99035156 27.45617187 13.94554687 27.47679687 14.9296875 27.49804688 C21.85728844 27.55869034 21.85728844 27.55869034 27.78515625 24.18554688 C30.10622616 20.98025986 30.33921376 18.06394944 29.78515625 14.18554688 C27.61252125 11.61268964 25.80521787 9.69557768 22.78515625 8.18554688 C21.19068161 8.10154158 19.5927508 8.07827221 17.99609375 8.08789062 C16.58457031 8.09272461 16.58457031 8.09272461 15.14453125 8.09765625 C14.1596875 8.10603516 13.17484375 8.11441406 12.16015625 8.12304688 C10.67128906 8.12981445 10.67128906 8.12981445 9.15234375 8.13671875 C6.69655465 8.14852543 4.24088521 8.16499287 1.78515625 8.18554688 Z " fill="#000000" transform="translate(411.21484375,489.814453125)"/>
<path d="M0 0 C0.763125 0.0825 1.52625 0.165 2.3125 0.25 C9.23703954 12.7946568 16.03696134 25.36668829 22.3125 38.25 C18.43094023 39.54385326 16.24507325 39.37359236 12.3125 38.25 C10.59375 34.6875 10.59375 34.6875 9.3125 31.25 C6.08456203 31.01670914 2.85878768 30.87532326 -0.375 30.75 C-1.74301758 30.64945313 -1.74301758 30.64945313 -3.13867188 30.546875 C-5.87241839 30.46734783 -8.05556332 30.4904742 -10.6875 31.25 C-13.009722 33.64630121 -14.395875 36.18977596 -15.6875 39.25 C-17.9975 38.92 -20.3075 38.59 -22.6875 38.25 C-21.32039928 33.76516541 -19.53158818 29.80845522 -17.31640625 25.6796875 C-16.99341049 25.07617462 -16.67041473 24.47266174 -16.33763123 23.8508606 C-15.6582676 22.58408577 -14.97659633 21.31854604 -14.29272461 20.05419922 C-13.25086507 18.1266005 -12.21770299 16.19452738 -11.18554688 14.26171875 C-3.70656812 0.34479703 -3.70656812 0.34479703 0 0 Z M-1.6875 11.25 C-2.71791513 13.20330868 -3.7365893 15.16281528 -4.75 17.125 C-5.31847656 18.21554687 -5.88695312 19.30609375 -6.47265625 20.4296875 C-6.87355469 21.36039063 -7.27445313 22.29109375 -7.6875 23.25 C-7.3575 23.91 -7.0275 24.57 -6.6875 25.25 C-2.7275 25.25 1.2325 25.25 5.3125 25.25 C5.6425 24.59 5.9725 23.93 6.3125 23.25 C5.08851475 20.31308225 5.08851475 20.31308225 3.375 17.125 C2.80910156 16.02929688 2.24320313 14.93359375 1.66015625 13.8046875 C0.99306641 12.54011719 0.99306641 12.54011719 0.3125 11.25 C-0.3475 11.25 -1.0075 11.25 -1.6875 11.25 Z " fill="#000000" transform="translate(173.6875,563.75)"/>
<path d="M0 0 C3.41261914 0.09204708 6.82411397 0.19840473 10.23583984 0.31933594 C12.00121094 0.35994141 12.00121094 0.35994141 13.80224609 0.40136719 C20.04965789 0.61921844 25.17636122 0.83452723 30.61083984 4.06933594 C32.76691232 7.64033098 33.61083984 10.02632824 33.61083984 14.19433594 C32.3293446 17.87863475 30.61915615 19.62070639 27.61083984 22.06933594 C25.29833984 22.88183594 25.29833984 22.88183594 23.61083984 23.06933594 C24.27083984 24.71933594 24.93083984 26.36933594 25.61083984 28.06933594 C26.27083984 28.06933594 26.93083984 28.06933594 27.61083984 28.06933594 C29.33740234 29.71386719 29.33740234 29.71386719 31.23583984 31.88183594 C31.86748047 32.58953125 32.49912109 33.29722656 33.14990234 34.02636719 C34.61083984 36.06933594 34.61083984 36.06933594 34.61083984 39.06933594 C27.39940564 39.68047443 27.39940564 39.68047443 24.11083984 37.13183594 C22.66170688 35.35664806 21.22245275 33.57311034 19.81005859 31.76855469 C15.48456932 26.23184002 15.48456932 26.23184002 9.11083984 24.00683594 C7.95583984 24.02746094 6.80083984 24.04808594 5.61083984 24.06933594 C5.61083984 28.68933594 5.61083984 33.30933594 5.61083984 38.06933594 C-0.01416016 39.19433594 -0.01416016 39.19433594 -3.38916016 37.06933594 C-3.41381026 31.96069698 -3.43199623 26.85209235 -3.4440918 21.7434082 C-3.4491322 20.00414426 -3.45596446 18.26488458 -3.46459961 16.52563477 C-3.47667807 14.03107657 -3.48239124 11.5365742 -3.48681641 9.04199219 C-3.49197769 8.25969742 -3.49713898 7.47740265 -3.50245667 6.67140198 C-3.50265242 4.80366479 -3.4511571 2.9360439 -3.38916016 1.06933594 C-2.38916016 0.06933594 -2.38916016 0.06933594 0 0 Z M5.61083984 6.06933594 C5.61083984 10.35933594 5.61083984 14.64933594 5.61083984 19.06933594 C7.65271484 19.11058594 9.69458984 19.15183594 11.79833984 19.19433594 C12.94689453 19.21753906 14.09544922 19.24074219 15.27880859 19.26464844 C18.55738883 19.07246906 20.71504586 18.58340738 23.61083984 17.06933594 C25.02525858 14.24049846 24.92984317 12.19556849 24.61083984 9.06933594 C22.11618842 6.33981912 20.66610104 6.07374508 16.93896484 5.77636719 C15.57927949 5.79616843 14.21974644 5.83174392 12.86083984 5.88183594 C12.16345703 5.89537109 11.46607422 5.90890625 10.74755859 5.92285156 C9.03498444 5.95804144 7.32281043 6.01184439 5.61083984 6.06933594 Z " fill="#000000" transform="translate(208.38916015625,563.9306640625)"/>
<path d="M0 0 C2.33944736 0.28730055 4.6739143 0.61936779 7 1 C7.00410889 1.79696289 7.00821777 2.59392578 7.01245117 3.41503906 C7.04535345 7.02744623 7.11599656 10.63815939 7.1875 14.25 C7.19330078 15.50425781 7.19910156 16.75851562 7.20507812 18.05078125 C7.23408203 19.25605469 7.26308594 20.46132813 7.29296875 21.703125 C7.31653442 23.36843262 7.31653442 23.36843262 7.34057617 25.06738281 C7.76658114 28.18238059 7.76658114 28.18238059 10.33325195 30.33496094 C13.72318961 32.45153832 16.0031905 32.93108949 20 33 C22.61947536 32.27236795 24.57271808 31.31073224 27 30 C28.36839363 27.26321275 28.21634818 24.95735576 28.31640625 21.8984375 C28.35830078 20.68671875 28.40019531 19.475 28.44335938 18.2265625 C28.48267578 16.95554687 28.52199219 15.68453125 28.5625 14.375 C28.60568359 13.09625 28.64886719 11.8175 28.69335938 10.5 C28.79969886 7.33344652 28.90172833 4.16681247 29 1 C31.64 1 34.28 1 37 1 C37.11647041 5.54144994 37.18734502 10.08251394 37.25 14.625 C37.28351563 15.91019531 37.31703125 17.19539062 37.3515625 18.51953125 C37.47481823 30.41370943 37.47481823 30.41370943 33 35 C27.73957546 39.66208241 21.05349274 39.59480866 14.3515625 39.38671875 C8.58960039 38.72187697 4.91780647 36.9953756 0.92358398 32.83959961 C-1.44507365 29.34298113 -1.47746459 27.3937589 -1.42578125 23.203125 C-1.41740234 21.91535156 -1.40902344 20.62757813 -1.40039062 19.30078125 C-1.38596924 18.63643066 -1.37154785 17.97208008 -1.35668945 17.28759766 C-1.3123322 15.24226254 -1.29520817 13.19810193 -1.28320312 11.15234375 C-1.16780392 1.16780392 -1.16780392 1.16780392 0 0 Z " fill="#000000" transform="translate(299,564)"/>
<path d="M0 0 C4.125 -0.0825 8.25 -0.165 12.5 -0.25 C13.78455078 -0.28641602 15.06910156 -0.32283203 16.39257812 -0.36035156 C23.39470188 -0.42788916 28.14783911 0.01495711 34 4 C36.08631621 7.46052615 36.48530826 9.95576451 36 14 C33.47276129 18.95727593 31.12014954 20.96357689 26 23 C22.87786096 23.47452866 19.77910795 23.59946668 16.625 23.6875 C15.37783203 23.73874023 15.37783203 23.73874023 14.10546875 23.79101562 C12.07076649 23.87287146 10.03540792 23.93812701 8 24 C8.01160156 24.92683594 8.02320312 25.85367188 8.03515625 26.80859375 C8.04417969 28.00613281 8.05320312 29.20367188 8.0625 30.4375 C8.07410156 31.63246094 8.08570312 32.82742188 8.09765625 34.05859375 C8 37 8 37 7 38 C4.69 37.67 2.38 37.34 0 37 C0 24.79 0 12.58 0 0 Z M8 5 C7.97313447 6.97909398 7.95366625 8.95828971 7.9375 10.9375 C7.92589844 12.03964844 7.91429688 13.14179687 7.90234375 14.27734375 C7.68737429 16.91447634 7.68737429 16.91447634 9 18 C11.10131921 18.12602054 13.20743788 18.1757922 15.3125 18.1875 C17.03919922 18.20876953 17.03919922 18.20876953 18.80078125 18.23046875 C21.85296686 18.01059213 23.55049429 17.80059131 26 16 C27.00082535 12.57756686 27.00082535 12.57756686 27 9 C25.27773504 5.75150023 25.27773504 5.75150023 22 5 C19.60509014 4.93029948 17.20832309 4.91551997 14.8125 4.9375 C13.54019531 4.94652344 12.26789063 4.95554687 10.95703125 4.96484375 C9.98121094 4.97644531 9.00539063 4.98804688 8 5 Z " fill="#000000" transform="translate(115,565)"/>
<path d="M0 0 C1.29349365 0.00523682 2.5869873 0.01047363 3.91967773 0.01586914 C4.9496714 0.01799156 4.9496714 0.01799156 6.00047302 0.02015686 C8.20144949 0.0257706 10.40232557 0.03832532 12.60327148 0.05102539 C14.09220231 0.05603863 15.58113473 0.06060184 17.07006836 0.06469727 C20.72700223 0.07574446 24.38387707 0.09301826 28.04077148 0.11352539 C28.04077148 1.76352539 28.04077148 3.41352539 28.04077148 5.11352539 C20.45077148 5.11352539 12.86077148 5.11352539 5.04077148 5.11352539 C5.04077148 8.74352539 5.04077148 12.37352539 5.04077148 16.11352539 C10.98077148 16.11352539 16.92077148 16.11352539 23.04077148 16.11352539 C23.04077148 17.76352539 23.04077148 19.41352539 23.04077148 21.11352539 C17.10077148 21.11352539 11.16077148 21.11352539 5.04077148 21.11352539 C5.04077148 26.39352539 5.04077148 31.67352539 5.04077148 37.11352539 C-0.58422852 38.23852539 -0.58422852 38.23852539 -3.95922852 37.11352539 C-3.98387862 32.00488643 -4.00206459 26.8962818 -4.01416016 21.78759766 C-4.01920056 20.04833371 -4.02603282 18.30907403 -4.03466797 16.56982422 C-4.04674643 14.07526602 -4.0524596 11.58076366 -4.05688477 9.08618164 C-4.06204605 8.30388687 -4.06720734 7.5215921 -4.07252502 6.71559143 C-4.07272078 4.84785425 -4.02122546 2.98023335 -3.95922852 1.11352539 C-2.95922852 0.11352539 -2.95922852 0.11352539 0 0 Z " fill="#000000" transform="translate(258.959228515625,564.886474609375)"/>
<path d="M0 0 C3.21563277 4.37957347 6.06856702 8.96347893 8.93164062 13.578125 C9.40021484 14.320625 9.86878906 15.063125 10.3515625 15.828125 C10.98106812 16.84253662 10.98106812 16.84253662 11.62329102 17.87744141 C12.97124899 19.88423704 12.97124899 19.88423704 15.91015625 21.6015625 C16.13445312 20.95832031 16.35875 20.31507813 16.58984375 19.65234375 C18.39903591 15.47193227 20.65571309 11.66703475 23.03515625 7.7890625 C23.70804687 6.60666992 23.70804687 6.60666992 24.39453125 5.40039062 C27.83092862 -0.14295987 27.83092862 -0.14295987 31.06152344 -0.90771484 C33.27734375 -0.91015625 33.27734375 -0.91015625 36.91015625 -0.3984375 C38.50158473 2.78441946 37.91023909 6.1886067 37.7890625 9.671875 C37.75364601 10.86621658 37.75364601 10.86621658 37.71751404 12.08468628 C37.64083414 14.63215779 37.55682864 17.1793286 37.47265625 19.7265625 C37.41943988 21.45180812 37.36669945 23.17706848 37.31445312 24.90234375 C37.18521318 29.13560772 37.04940206 33.36861632 36.91015625 37.6015625 C34.5772085 37.64397973 32.24313058 37.64249187 29.91015625 37.6015625 C28.91015625 36.6015625 28.91015625 36.6015625 28.79663086 34.46850586 C28.80186768 33.55206299 28.80710449 32.63562012 28.8125 31.69140625 C28.81572266 30.70205078 28.81894531 29.71269531 28.82226562 28.69335938 C28.83483398 27.13198242 28.83483398 27.13198242 28.84765625 25.5390625 C28.85216797 24.49427734 28.85667969 23.44949219 28.86132812 22.37304688 C28.87315712 19.7824959 28.88963936 17.19205691 28.91015625 14.6015625 C24.65683254 18.51386248 21.99119936 23.11443994 19.0078125 28.01953125 C16.91015625 30.6015625 16.91015625 30.6015625 14.15625 31.46484375 C13.41503906 31.50996094 12.67382812 31.55507813 11.91015625 31.6015625 C11.36746094 30.78171875 10.82476562 29.961875 10.265625 29.1171875 C9.55019531 28.03953125 8.83476562 26.961875 8.09765625 25.8515625 C7.38996094 24.78421875 6.68226563 23.716875 5.953125 22.6171875 C4.73621762 20.82091122 3.48028216 19.04873108 2.1484375 17.3359375 C0.91015625 15.6015625 0.91015625 15.6015625 0.91015625 13.6015625 C0.25015625 13.6015625 -0.40984375 13.6015625 -1.08984375 13.6015625 C-1.08984375 21.1915625 -1.08984375 28.7815625 -1.08984375 36.6015625 C-5.08984375 37.6015625 -5.08984375 37.6015625 -9.08984375 36.6015625 C-9.08984375 24.3915625 -9.08984375 12.1815625 -9.08984375 -0.3984375 C-2.08984375 -1.3984375 -2.08984375 -1.3984375 0 0 Z " fill="#000000" transform="translate(359.08984375,565.3984375)"/>
</svg>
